<?xml version="1.0" encoding="utf-8"?>
<!-- Generator: Adobe Illustrator 22.1.0, SVG Export Plug-In . SVG Version: 6.00 Build 0)  -->
<svg version="1.1" id="Layer_1" xmlns="http://www.w3.org/2000/svg" xmlns:xlink="http://www.w3.org/1999/xlink" x="0px" y="0px"
	 viewBox="0 0 754 664" style="enable-background:new 0 0 754 664;" xml:space="preserve">
<style type="text/css">
	.st0{fill:#FFFFFF;}
	.st1{fill:#ECECEC;}
</style>
<path class="st0" d="M0,0v664h754V0H0z M748.4,428c-19.6,73.1-120.1,187.3-359.3,228.6C150,697.9,45.6,520,14.6,458.7
	c-31-61.2-3.3-133.1,55.7-150.2c13.8-4,25.6-9.9,35.4-17.1c-1.8-2.6-3.7-6.2-5.8-8.8c-58.2-69.9-74.2-97.7-59.6-124.1
	c8-14.5,30-36.9,65-58.2c-8.9-36.9-7.2-58,8.3-71.5c25.2-22.1,106.7-31.5,175.9-27c60.7,4,301.5,52.3,374.9,128.7
	C740.8,210.2,764,369.5,748.4,428z"/>
<path class="st1" d="M284.4,1.8c-69.1-4.5-145.7,3.9-170.9,26c-15.5,13.5-17.2,35.6-8.3,72.5c28.5-17.4,65.7-34.1,111-45.5
	c100.9-25.3,449.4-72.3,476.5,240.8c5.9,67.8-43.2,197.2-233.4,304.4c-190.2,107.3-333.6-10.7-378.6-52.9
	c-45-42.3-43.1-112.7,1.5-145.3c41.1-30,48-75.2,23.5-111.5c-9.8,7.3-21.7,13.1-35.4,17.1c-59,17.2-87.7,90-56.7,151.2
	s136.1,238.8,375.5,198.8S728.8,501.1,748.4,428c15.7-58.5-6.6-217.8-83.1-297.5C588.8,50.9,353.5,6.3,284.4,1.8z"/>
</svg>
