<?xml version="1.0" encoding="utf-8"?>
<!-- Generator: Adobe Illustrator 21.0.2, SVG Export Plug-In . SVG Version: 6.00 Build 0)  -->
<svg version="1.1" id="Layer_1" xmlns="http://www.w3.org/2000/svg" xmlns:xlink="http://www.w3.org/1999/xlink" x="0px" y="0px"
	 viewBox="0 0 651.3 591.5" style="enable-background:new 0 0 651.3 591.5;" xml:space="preserve">
<style type="text/css">
	.st0{fill:#FFFFFF;}
	.st1{fill:#FAFAFA;}
</style>
<title>tertiary</title>
<path class="st0" d="M0.2-1.5V590h651.3V-1.5H0.2z M644.9,415.8c-11.7,71.7-72.4,132.4-139.3,160.6c-64.1,27-138.5,10-202.7-16.4
	c-22.5-9.2-39.3-25.6-54.6-43.9c-45-15.5-86.8-36.7-122.7-68.7c-14.9-13.2-28.8-27.5-41.4-42.9c-34.7-11.4-65-25.8-75-58.8
	c-7.8-25.5-0.2-49.1,14-71.9c-10.2-48-11.4-97.9,8.5-142.2c24.9-55.2,76.4-96,133.2-116.8c31.8-11.7,65.4-11.2,98.8-5.6
	c31.7-5,65-4.2,97.5-2.5c61.4,3.1,132.7,0,174,45.4c23,25.3,23.2,59.3,22.2,94.5c17.1,10.5,31.6,23.6,40.9,42.1
	c18.8,37.1,18.1,79.3,9.7,121C630.7,343.4,651.3,376.8,644.9,415.8z"/>
<rect x="0.2" y="589.8" class="st0" width="651.3" height="2.9"/>
<path class="st1" d="M589.3,376.4c-22.8,67.3-50.2,143.5-114.7,173.5c-63.5,29.6-136.1-5.9-203.4-25.4c-10-3-34.2-13.5-25.1-7.9
	c15.7,18.4,32.7,34.8,55.5,44.1c65.1,26.3,140.5,43.1,205.2,15.5c67.5-28.9,128.6-90.7,140.1-163.3c6.3-39.5-14.8-73.1-38.1-107.2
	C604.2,329.8,596.9,353.8,589.3,376.4z"/>
<path class="st1" d="M445.4,95.8c35.8,21.7,80.9,32.2,115.4,53.4c0.8-36.5,0.3-71.6-23.2-97.6C495.4,4.9,423.2,8.8,361.2,6
	c-32.9-1.4-66.6-2.1-98.6,3.4c21.1,3.5,42.2,8.8,62.8,14.7C371.2,37,404.6,70.9,445.4,95.8z"/>
<path class="st1" d="M23,273.6c-14.3,23-22,46.9-14.1,72.8c10.2,33.4,40.8,47.9,75.8,59.4c-23.4-28.6-41.9-60.6-52.5-96.5
	C28.7,297.6,25.6,285.6,23,273.6z"/>
</svg>
