<?xml version="1.0" encoding="utf-8"?>
<!-- Generator: Adobe Illustrator 22.1.0, SVG Export Plug-In . SVG Version: 6.00 Build 0)  -->
<svg version="1.1" id="Layer_1" xmlns="http://www.w3.org/2000/svg" xmlns:xlink="http://www.w3.org/1999/xlink" x="0px" y="0px"
	 viewBox="0 0 510 414" style="enable-background:new 0 0 510 414;" xml:space="preserve">
<style type="text/css">
	.st0{fill:#FFFFFF;}
	.st1{fill:#28D2C6;}
</style>
<path class="st0" d="M0,0v414h510V0H0z M480.6,197.8c-27.8,16.9-36.5,50.6-24.3,80.3c22.7,55.3,31,81.8,19.9,98.3
	c-11.1,16.5-39.6,33.6-82.9,34.9c-43.4,1.3-92.3,1.7-92.3,1.7l-151.1-35.6c-5.7-44.1-16-141.9-11.8-180
	c5.3-47.6,47.8-131,163.8-182.1c116-51.1,178.7,47.6,197.7,82.3C518.5,132.3,508.7,180.7,480.6,197.8z"/>
<path class="st1" d="M137.9,197.5c4.4-40.1,35.3-105.6,114.4-155.8C185,31.1,60,79.1,13.1,192.9C-50,346.5,143.2,404.8,225.8,400
	c4.7-0.3,9.8-0.6,15.1-1.1l-91.1-21.4C144.1,333.3,133.7,235.5,137.9,197.5z"/>
<path class="st1" d="M480.6,197.8c-27.8,16.9-36.5,50.6-24.3,80.3c3.6,8.8,6.9,16.8,9.7,24.3c14-19,23-41.4,24.8-67.8
	c1.1-16.4-0.1-30.3-3.1-42C485.4,194.5,483.1,196.3,480.6,197.8z"/>
</svg>
