<svg width="1920" height="1084" viewBox="0 0 1920 1084" fill="none" xmlns="http://www.w3.org/2000/svg">
<path fill-rule="evenodd" clip-rule="evenodd" d="M0 27.3792L79.875 36.9665C159.75 46.5539 319.5 65.7286 479.25 84.9033C639 104.078 798.75 123.253 958.5 104.078C1118.25 84.9033 1278 27.3792 1437.75 8.20443C1597.5 -10.9703 1757.25 8.20443 1837.12 17.7918L1917 27.3792V315H1837.12C1757.25 315 1597.5 315 1437.75 315C1278 315 1118.25 315 958.5 315C798.75 315 639 315 479.25 315C319.5 315 159.75 315 79.875 315H0V27.3792Z" fill="#FBFBFB"/>
<path fill-rule="evenodd" clip-rule="evenodd" d="M1959 1056.62L1877.38 1047.03C1795.75 1037.45 1632.5 1018.27 1469.25 999.097C1306 979.922 1142.75 960.747 979.5 979.922C816.25 999.097 653 1056.62 489.75 1075.8C326.5 1094.97 163.25 1075.8 81.625 1066.21L-0.000119677 1056.62L-9.45322e-05 769L81.625 769C163.25 769 326.5 769 489.75 769C653 769 816.25 769 979.5 769C1142.75 769 1306 769 1469.25 769C1632.5 769 1795.75 769 1877.38 769L1959 769L1959 1056.62Z" fill="#FBFBFB"/>
<rect x="-21" y="251" width="1980" height="669" fill="#FBFBFB"/>
</svg>
