<svg width="862" height="868" viewBox="0 0 862 868" fill="none" xmlns="http://www.w3.org/2000/svg">
<path fill-rule="evenodd" clip-rule="evenodd" d="M268.468 704.751C214.986 659.067 196.605 584.058 191.326 513.945C186.98 456.232 232.421 409.416 241.93 352.333C253.24 284.44 201.955 198.625 251.764 151.13C300.49 104.667 381.646 150.427 448.846 155.029C506.411 158.972 566.831 146.545 616.395 176.103C667.062 206.319 694.352 261.61 718.098 315.601C743.13 372.519 778.341 435.553 756.013 493.558C733.904 550.992 654.03 555.793 609.347 598.113C557.861 646.878 544.611 736.722 476.917 757.899C406.786 779.838 324.361 752.495 268.468 704.751Z" fill="#28D2C6"/>
</svg>
