<?xml version="1.0" encoding="utf-8"?>
<!-- Generator: Adobe Illustrator 21.0.2, SVG Export Plug-In . SVG Version: 6.00 Build 0)  -->
<svg version="1.1" id="Layer_1" xmlns="http://www.w3.org/2000/svg" xmlns:xlink="http://www.w3.org/1999/xlink" x="0px" y="0px" viewBox="0 0 1920 458" preserveAspectRatio="none">
<style type="text/css">
	.st0{fill:#278ED0;}
	.st1{fill:url(#SVGID_1_);}
	.st2{fill:none;stroke:#FAFAFA;}
</style>
<path class="st0" d="M2136.4-70.8c242.8-100.1,343.3,17.3,363.1,88.6L2643,806.6L1141,615.4c-128.7-7.5-1020.4-60-1450.2-85.3
	c-304.1-146.6-795.1-161-400.4-268.4C-216.3,127.3-47.3-81.6,717.7,56.1C1482.7,193.8,1832.8,54.3,2136.4-70.8z"/>
<linearGradient id="SVGID_1_" gradientUnits="userSpaceOnUse" x1="-70.6748" y1="72.8063" x2="1719.8252" y2="-465.1916" gradientTransform="matrix(1 0 0 -1 0 -44)">
	<stop  offset="0" style="stop-color:#5EBFFD"/>
	<stop  offset="1" style="stop-color:#1983C6"/>
</linearGradient>
<path class="st1" d="M2136.4-70.8c242.8-100.1,343.3,17.3,363.1,88.6L2643,806.6L1141,615.4c-128.7-7.5-1020.4-60-1450.2-85.3
	c-304.1-146.6-795.1-161-400.4-268.4C-216.3,127.3-47.3-81.6,717.7,56.1C1482.7,193.8,1832.8,54.3,2136.4-70.8z"/>
<path class="st2" d="M2136.4-70.8c242.8-100.1,343.3,17.3,363.1,88.6L2643,806.6L1141,615.4c-128.7-7.5-1020.4-60-1450.2-85.3
	c-304.1-146.6-795.1-161-400.4-268.4C-216.3,127.3-47.3-81.6,717.7,56.1C1482.7,193.8,1832.8,54.3,2136.4-70.8z"/>
</svg>
