<svg width="823" height="831" viewBox="0 0 823 831" fill="none" xmlns="http://www.w3.org/2000/svg">
<path fill-rule="evenodd" clip-rule="evenodd" d="M575.556 673.415C512.719 699.89 439.738 683.201 376.694 657.29C324.8 635.962 303.996 576.233 258.672 543.175C204.766 503.856 108.114 510.977 88.6204 447.17C69.5503 384.75 144.485 334.331 177.691 278.109C206.137 229.947 221.641 172.194 268.802 142.102C317.013 111.341 376.783 111.737 433.888 114.639C494.087 117.698 564.012 114.598 604.56 159.165C644.71 203.294 614.14 274.587 631.379 331.702C651.243 397.514 723.325 448.059 712.24 515.919C700.755 586.222 641.225 645.748 575.556 673.415Z" fill="#278ED0"/>
</svg>
