<svg width="1920" height="723" viewBox="0 0 1920 723" fill="none" xmlns="http://www.w3.org/2000/svg">
<path fill-rule="evenodd" clip-rule="evenodd" d="M1932 551.694L1865.9 545.486C1804.52 536.174 1672.32 520.654 1544.83 551.694C1417.35 582.733 1285.15 660.332 1157.67 697.58C1030.18 734.828 897.982 734.828 770.5 672.748C643.018 613.773 510.815 489.614 383.333 452.367C255.852 415.119 123.648 458.575 -3.83335 489.614C-131.315 520.654 -263.518 536.174 -324.898 545.486L-391 551.693L-391 322L-324.898 322C-263.518 322 -131.315 322 -3.83333 322C123.648 322 255.852 322 383.333 322C510.815 322 643.018 322 770.5 322C897.982 322 1030.18 322 1157.67 322C1285.15 322 1417.35 322 1544.83 322C1672.32 322 1804.52 322 1865.9 322L1932 322L1932 551.694Z" fill="#FBFBFB"/>
<path fill-rule="evenodd" clip-rule="evenodd" d="M-40 90.4978L41.7917 109.598C123.583 128.698 287.167 166.898 450.75 128.698C614.333 90.4978 777.917 -24.103 941.5 4.54718C1105.08 33.1974 1268.67 205.099 1432.25 243.299C1595.83 281.499 1759.42 185.999 1841.21 138.248L1923 90.4978V377H1841.21C1759.42 377 1595.83 377 1432.25 377C1268.67 377 1105.08 377 941.5 377C777.917 377 614.333 377 450.75 377C287.167 377 123.583 377 41.7917 377H-40V90.4978Z" fill="#FBFBFB"/>
</svg>
