<?xml version="1.0" encoding="utf-8"?>
<!-- Generator: Adobe Illustrator 22.1.0, SVG Export Plug-In . SVG Version: 6.00 Build 0)  -->
<svg version="1.1" id="Layer_1" xmlns="http://www.w3.org/2000/svg" xmlns:xlink="http://www.w3.org/1999/xlink" x="0px" y="0px"
	 viewBox="0 0 864 698" style="enable-background:new 0 0 864 698;" xml:space="preserve">
<style type="text/css">
	.st0{fill:#28D2C6;}
	.st1{fill:#FFFFFF;}
</style>
<path class="st0" d="M813.2,300.8c-41.3,25.2-54.3,75.3-36.2,119.3c15.5,37.9,26.5,66.6,32.3,89.1c17.4-28.5,28.5-61.2,31-98.6
	c3.4-50.5-6.1-86.8-23-112.5C815.9,299.1,814.6,299.9,813.2,300.8z"/>
<path class="st0" d="M683.3,618.1c-64.5,2-137.2,2.6-137.2,2.6l-224.7-52.9c-8.5-65.6-23.8-211-17.6-267.5
	c6.1-55.2,46-142.8,145.2-214.8C339,57.8,111.2,137.9,28.1,339.8C-79.3,600.9,249.3,700.1,389.7,692c75.7-4.4,196.6-23.5,294.2-73.9
	C683.6,618.1,683.5,618.1,683.3,618.1z"/>
<path class="st1" d="M0,0v698h864V0H0z M840.3,410.6c-2.5,37.4-13.6,70.1-31,98.6c6.7,26.3,6.2,43.8-2.7,57.1
	c-16.5,24.4-58.6,49.8-122.7,51.9c-97.6,50.3-218.4,69.5-294.2,73.9c-140.4,8.1-469-91-361.6-352.1C111.2,137.9,339,57.8,449,85.5
	c27.9-20.2,60.5-39.2,98.4-55.9c172.5-76,265.6,70.8,294,122.3c27.4,49.8,14.7,118.8-24.1,146.3
	C834.2,323.8,843.7,360.1,840.3,410.6z"/>
</svg>
