<svg id="Layer_1" data-name="Layer 1" xmlns="http://www.w3.org/2000/svg" xmlns:xlink="http://www.w3.org/1999/xlink" viewBox="0 0 825.86 748">
<defs>
	<style>.cls-1{fill:#fff;}.cls-2{mask:url(#mask);}.cls-3{fill:#fafafa;}</style>
	<mask id="mask" x="79.72" y="-458" width="1217.36" height="1098.29" maskUnits="userSpaceOnUse">
		<g transform="translate(0)">
			<g id="mask0">
				<path class="cls-1" d="M155.08,157c86.36-52.31,103-143,51.5-217C110.52-198,94.2-254.29,104.07-311.37l96.76-70L674.39-458l516.82,49.25C1226.5-295,1297.08-42.18,1297.08,58.56c0,125.92-111,356.5-478.68,523.84s-613-72.83-689.32-157.9S67.58,210,155.08,157Z"/>
			</g>
		</g>
	</mask>
</defs>
<path class="cls-1" d="M20.84,401.21C-30.22,300.47,17,180.68,114.1,152.46,194,129.25,234.39,68.21,228.16,0H0V748H825.86V683c-55.68,18.31-117.93,33.79-187.28,45.36C244.71,794,71.9,501.94,20.84,401.21Z" transform="translate(0)"/>
<path class="cls-3" d="M818.39,582.4c-367.69,167.34-613-72.83-689.32-157.9S67.58,210,155.08,157c64-38.74,89.67-98.53,77.79-157h-4.71C234.39,68.21,194,129.25,114.1,152.46,17,180.68-30.22,300.47,20.84,401.21S244.71,794,638.58,728.31c69.35-11.57,131.6-27,187.28-45.36V579C823.38,580.11,820.9,581.26,818.39,582.4Z" transform="translate(0)"/>
</svg>
