<?xml version="1.0" encoding="utf-8"?>
<!-- Generator: Adobe Illustrator 21.0.2, SVG Export Plug-In . SVG Version: 6.00 Build 0)  -->
<svg version="1.1" id="Layer_1" xmlns="http://www.w3.org/2000/svg" xmlns:xlink="http://www.w3.org/1999/xlink" x="0px" y="0px"
	 viewBox="0 0 825.9 748" style="enable-background:new 0 0 825.9 748;" xml:space="preserve">
<style type="text/css">
	.st0{fill:#FFFFFF;}
	.st1{fill:#FAFAFA;}
</style>
<path class="st0" d="M22,401.7c-50.9-100.3-3.8-219.7,92.9-247.8c79.6-23.1,119.8-84,113.7-151.9H1.3v745.1H824v-64.8
	c-55.5,18.2-117.4,33.7-186.6,45.2C245,793,72.9,502,22,401.7z"/>
<rect x="823.3" y="683" class="st0" width="5.1" height="64.1"/>
<rect x="1.2" y="0.1" class="st0" width="227" height="1.9"/>
<rect x="-48.1" y="1.6" class="st0" width="51" height="746"/>
<rect x="825.8" y="579.1" class="st1" width="3.3" height="103.9"/>
<path class="st1" d="M818.3,582.5c-367.7,167.3-613-72.8-689.3-157.9s-61.5-214.5,26-267.5c64-38.7,89.7-98.5,77.8-157h-4.7
	c6.2,68.2-34.2,129.3-114.1,152.5c-97.1,28.2-144.3,148-93.3,248.7s223.9,392.8,617.8,327.1c69.3-11.6,131.6-27,187.3-45.4V579.1
	C823.3,580.2,820.8,581.4,818.3,582.5z"/>
</svg>
