<?xml version="1.0" encoding="utf-8"?>
<!-- Generator: Adobe Illustrator 22.1.0, SVG Export Plug-In . SVG Version: 6.00 Build 0)  -->
<svg version="1.1" id="Layer_1" xmlns="http://www.w3.org/2000/svg" xmlns:xlink="http://www.w3.org/1999/xlink" x="0px" y="0px"
	 viewBox="0 0 670 570" style="enable-background:new 0 0 670 570;" xml:space="preserve">
<style type="text/css">
	.st0{fill:#278ED0;}
	.st1{fill:#FFFFFF;}
</style>
<path class="st0" d="M102.1,375.4c-7.5-10.7-16.6-20.9-26.3-31c-14,19.4-24.1,39-18.1,60.6c13.2,47.8,77.2,74,129.3,100.6
	c20.3,10.4,41.2,20.6,62.9,28.9c-25.3-14.5-48.3-32.2-70.3-50.1C141.9,453.8,128.3,412.9,102.1,375.4z"/>
<path class="st0" d="M645.3,355.7c-1.1,12.6-3.4,25.1-7.2,37.5c-6.8,22.4-15.8,44.9-28,65.8c27.5-10.5,49.5-24.2,56.2-47.1
	C672.4,391,661.9,372.9,645.3,355.7z"/>
<path class="st1" d="M0,0v570h670V0H0z M666.2,412c-6.7,22.9-28.7,36.6-56.2,47.1c-17.2,29.3-40.8,55.6-74,74.4
	c-56.8,32.2-131.9,40.9-200.8,31.4c-31.6-4.3-59.6-15.6-85.3-30.3c-21.7-8.3-42.6-18.6-62.9-28.9C134.9,479.1,71,452.8,57.8,405
	c-6-21.6,4.1-41.2,18.1-60.6C41,308.2-0.9,274.5,2.2,230.5c4.1-59.3,63.3-106.7,120.2-145.7c61.2-42,132.2-88.7,213-82.8
	c79.7,5.9,130.8,66.4,185.9,112.1c45.2,37.5,82.8,78.5,103.4,127.6c15.6,37.1,24,75.7,20.7,114C661.9,372.9,672.4,391,666.2,412z"/>
</svg>
