<?xml version="1.0" encoding="utf-8"?>
<!-- Generator: Adobe Illustrator 21.0.2, SVG Export Plug-In . SVG Version: 6.00 Build 0)  -->
<svg version="1.1" id="Layer_1" xmlns="http://www.w3.org/2000/svg" xmlns:xlink="http://www.w3.org/1999/xlink" x="0px" y="0px"
	 viewBox="0 0 754 664" style="enable-background:new 0 0 754 664;" xml:space="preserve">
<style type="text/css">
	.st0{fill:#FFFFFF;}
	.st1{fill:#FAFAFA;}
</style>
<path class="st0" d="M-0.4,0.5v662.4h752.1V0.5H-0.4z M746.1,427.4c-19.6,72.9-119.8,186.8-358.4,228
	C149.2,696.6,45.1,519.2,14.2,458c-30.9-61-3.3-132.8,55.6-149.8c13.8-4,25.5-9.9,35.3-17.1c-1.8-2.6-3.7-6.2-5.8-8.8
	c-58.1-69.7-74-97.5-59.5-123.8c8-14.5,29.9-36.8,64.8-58.1c-8.9-36.8-7.2-57.9,8.3-71.3C138,7.1,219.3-2.2,288.4,2.3
	c60.5,4,300.8,52.2,374,128.4C738.5,210.1,761.7,369,746.1,427.4z"/>
<rect x="751.5" y="10.1" class="st0" width="2.5" height="653.9"/>
<rect x="751.7" y="0.5" class="st0" width="2.3" height="9.6"/>
<rect x="398.3" y="-0.1" class="st0" width="355.8" height="0.7"/>
<rect x="-0.4" y="662.7" class="st0" width="754.4" height="1.4"/>
<rect y="-0.1" class="st0" width="398.3" height="1"/>
<path class="st1" d="M283.7,1.6c-69.1-4.5-145.7,3.9-170.9,26c-15.5,13.5-17.2,35.6-8.3,72.5c28.5-17.4,65.7-34.1,111-45.5
	C316.4,29.3,664.9-17.7,692,295.4c5.9,67.8-43.2,197.2-233.4,304.4C268.4,707.1,125,589.1,80,546.9c-45-42.3-43.1-112.7,1.5-145.3
	c41.1-30,48-75.2,23.5-111.5c-9.8,7.3-21.7,13.1-35.4,17.1c-59,17.2-87.7,90-56.7,151.2S149,697.2,388.4,657.2
	s339.7-156.3,359.3-229.4c15.7-58.5-6.6-217.8-83.1-297.5C592.5,55.3,379.5,11.4,297.3,2.8c-1.5-0.2-2.9-0.3-4.3-0.4
	C289.6,2.1,286.5,1.8,283.7,1.6z"/>
</svg>
