<?xml version="1.0" encoding="utf-8"?>
<!-- Generator: Adobe Illustrator 22.1.0, SVG Export Plug-In . SVG Version: 6.00 Build 0)  -->
<svg version="1.1" id="Layer_1" xmlns="http://www.w3.org/2000/svg" xmlns:xlink="http://www.w3.org/1999/xlink" x="0px" y="0px"
	 viewBox="0 0 662 600" style="enable-background:new 0 0 662 600;" xml:space="preserve">
<style type="text/css">
	.st0{fill:#FFFFFF;}
	.st1{fill:#FAFAFA;}
</style>
<path class="st0" d="M0,0v600h662V0H0z M540.4,502.3c-34.4,48.4-91.7,78-150.4,87.3c-53.3,8.5-105-14.6-153.1-39.1
	c-41-20.9-66.3-58.9-100.4-89.9c-45-40.8-114.4-61.8-131-120.3c-17.4-61.6,13.6-126.2,45.7-181.6C85.7,99.2,126.4,32,193.4,15.8
	c66-16,128.3,31.7,188.5,63.1c49.4,25.8,93.9,57.2,127.6,101.6c33.8,44.6,58.5,95.1,63.8,150.8C579,390.6,574.8,453.8,540.4,502.3z"
	/>
<path class="st1" d="M236.9,550.6c-41-20.9-66.3-58.9-100.4-89.9c-13.3-12.1-28.8-22.5-44.5-32.6c-5.2,27.2-6.8,53.4,7.4,76.8
	c31.2,51.5,100.4,61.9,158.9,76.5c55.5,13.8,114.1,25.7,167.3,4.8c9.8-3.8,18.7-8.9,26.9-14.8c-19.9,8.7-41.1,14.8-62.5,18.2
	C336.7,598.1,285,575,236.9,550.6z"/>
<path class="st1" d="M144.9,38.6c-37.1,23-67.8,55.8-82.6,95.5c-1.4,3.8-2.5,7.5-3.3,11.3C82.4,105.7,109.1,64.5,144.9,38.6z"/>
<path class="st1" d="M382,78.9c37.2,19.4,71.6,42,100.7,70.9c-17.8-33.5-32.1-69-63.8-89.9c-56.9-37.6-125.3-68-192-54.1
	c-13,2.7-26,6.5-38.7,11.4c1.8-0.5,3.5-1,5.3-1.4C259.5-0.1,321.7,47.6,382,78.9z"/>
<path class="st1" d="M661.1,321.5c-6.1-58.8-82.4-74.6-131.2-111.5c23.1,37,39.3,77.6,43.4,121.3c3.7,38.3,3.2,78.2-6.9,114.8
	C610.6,408.6,666.7,375.3,661.1,321.5z"/>
</svg>
