<?xml version="1.0" encoding="utf-8"?>
<!-- Generator: Adobe Illustrator 22.1.0, SVG Export Plug-In . SVG Version: 6.00 Build 0)  -->
<svg version="1.1" id="Layer_1" xmlns="http://www.w3.org/2000/svg" xmlns:xlink="http://www.w3.org/1999/xlink" x="0px" y="0px"
	 viewBox="0 0 492 438" style="enable-background:new 0 0 492 438;" xml:space="preserve">
<style type="text/css">
	.st0{fill:#FFFFFF;}
	.st1{fill:#28D2C6;}
</style>
<path class="st0" d="M0,0v438h492V0H0z M201.6,437.2C11.5,441.5-43.7,276.8,37.8,238.5c65.2-30.6,76.2-75.4,73.6-94
	C96.1,112.8,96.2,41.1,218.6,8.2c153-41,207.1,96,218.6,165.6C448.8,243.4,391.7,432.8,201.6,437.2z"/>
<path class="st1" d="M440.5,271.4c-3.8-3.3-8.2-8.1-12.1-14.1c-17.9,60.2-60.4,129.2-137,161.5c56.8,23.2,120.1,30.4,166.7-13.4
	C524.7,342.9,474.1,290,440.5,271.4z"/>
<path class="st1" d="M111.4,144.6c-1.2-2.4-2.2-5-3.2-7.9c-8.8,17.1-12,35.8-11.2,54.9C110.2,172.5,112.8,154.7,111.4,144.6z"/>
</svg>
