<svg xmlns="http://www.w3.org/2000/svg" viewBox="0 0 1000 1000" fill="currentColor"><path d="M193.832 0h60L295 154.25 333.168 0h60.582l-69.375 229.375v156.543H264.75V229.375zm274.75 98.875c-46.625 0-77.539 30.832-77.539 76.457v139.543c0 50.168 26.207 76.293 77.539 76.293 42.586 0 76.086-28.461 76.086-76.293V175.332c0-44.539-33.211-76.457-76.086-76.457zM490.707 312.5c0 15.5-7.914 26.918-22.164 26.918-14.625 0-23.086-11.961-23.086-26.918V180.043c0-15.586 7.168-27.125 22.043-27.125 16.25 0 23.207 11.207 23.207 27.125zM687.75 101.25v216.082c-6.457 8.086-20.832 21.336-31.125 21.336-11.293 0-14.082-7.75-14.082-19.168V101.25h-52.918v237.918c0 28.125 8.582 50.832 36.957 50.832 16 0 38.25-8.332 61.168-35.543v31.418h52.918V101.25zm91.793 577.418c-18.668 0-22.543 13.125-22.543 31.789v27.461h44.543v-27.5c.039-18.336-3.836-31.75-22-31.75zm-195.961 1.664c-3.5 1.793-6.957 4.543-10.414 8.25v168.961c4.125 4.414 8.082 7.582 11.957 9.539 8.207 4.168 20.207 4.461 25.793-2.789 2.914-3.836 4.375-10.043 4.375-18.711V705.625c0-9.168-1.793-16.082-5.375-20.832-6.125-8.043-17.5-8.918-26.336-4.461zm201.125-216.457c-108.5-7.375-461.082-7.375-569.414 0-117.25 8-131.086 78.832-131.961 265.293.875 186.125 14.586 257.289 131.961 265.289 108.332 7.375 460.914 7.375 569.414 0 117.25-8 131.086-78.875 131.961-265.289-.875-186.125-14.586-257.293-131.961-265.293zm-513.5 445.25h-56.789V594.957h-58.75v-53.332h174.25v53.332h-58.75v314.168zm201.918 0h-50.418v-29.918c-9.289 11.043-18.957 19.461-29 25.211-27.164 15.582-64.457 15.207-64.457-39.793V638.043h50.375v207.832c0 10.918 2.625 18.25 13.418 18.25 9.832 0 23.5-12.625 29.625-20.293V638.043h50.414v271.082zm194.043-56.168c0 33.543-12.543 59.625-46.086 59.625-18.457 0-33.832-6.75-47.875-24.289v20.832h-50.875v-367.5h50.875v118.332c11.375-13.875 26.836-25.332 44.836-25.332 36.914 0 49.164 31.207 49.164 67.957v150.375zm186.289-73h-96.414v51.168c0 20.332 1.75 37.918 22 37.918 21.289 0 22.539-14.336 22.539-37.918v-18.832h51.875v20.375c0 52.207-22.414 83.875-75.539 83.875-48.125 0-72.75-35.086-72.75-83.875V710.957c0-47.039 31.082-79.75 76.539-79.75 48.375 0 71.711 30.75 71.711 79.75v69zm0 0"/></svg>