<svg xmlns="http://www.w3.org/2000/svg" viewBox="0 0 1000 1000">
	<path d="M 193.832031 0 L 253.832031 0 L 295 154.25 L 333.167969 0 L 393.75 0 L 324.375 229.375 L 324.375 385.917969 L 264.75 385.917969 L 264.75 229.375 Z M 468.582031 98.875 C 421.957031 98.875 391.042969 129.707031 391.042969 175.332031 L 391.042969 314.875 C 391.042969 365.042969 417.25 391.167969 468.582031 391.167969 C 511.167969 391.167969 544.667969 362.707031 544.667969 314.875 L 544.667969 175.332031 C 544.667969 130.792969 511.457031 98.875 468.582031 98.875 Z M 490.707031 312.5 C 490.707031 328 482.792969 339.417969 468.542969 339.417969 C 453.917969 339.417969 445.457031 327.457031 445.457031 312.5 L 445.457031 180.042969 C 445.457031 164.457031 452.625 152.917969 467.5 152.917969 C 483.75 152.917969 490.707031 164.125 490.707031 180.042969 Z M 687.75 101.25 L 687.75 317.332031 C 681.292969 325.417969 666.917969 338.667969 656.625 338.667969 C 645.332031 338.667969 642.542969 330.917969 642.542969 319.5 L 642.542969 101.25 L 589.625 101.25 L 589.625 339.167969 C 589.625 367.292969 598.207031 390 626.582031 390 C 642.582031 390 664.832031 381.667969 687.75 354.457031 L 687.75 385.875 L 740.667969 385.875 L 740.667969 101.25 Z M 779.542969 678.667969 C 760.875 678.667969 757 691.792969 757 710.457031 L 757 737.917969 L 801.542969 737.917969 L 801.542969 710.417969 C 801.582031 692.082031 797.707031 678.667969 779.542969 678.667969 Z M 583.582031 680.332031 C 580.082031 682.125 576.625 684.875 573.167969 688.582031 L 573.167969 857.542969 C 577.292969 861.957031 581.25 865.125 585.125 867.082031 C 593.332031 871.25 605.332031 871.542969 610.917969 864.292969 C 613.832031 860.457031 615.292969 854.25 615.292969 845.582031 L 615.292969 705.625 C 615.292969 696.457031 613.5 689.542969 609.917969 684.792969 C 603.792969 676.75 592.417969 675.875 583.582031 680.332031 Z M 784.707031 463.875 C 676.207031 456.5 323.625 456.5 215.292969 463.875 C 98.042969 471.875 84.207031 542.707031 83.332031 729.167969 C 84.207031 915.292969 97.917969 986.457031 215.292969 994.457031 C 323.625 1001.832031 676.207031 1001.832031 784.707031 994.457031 C 901.957031 986.457031 915.792969 915.582031 916.667969 729.167969 C 915.792969 543.042969 902.082031 471.875 784.707031 463.875 Z M 271.207031 909.125 L 214.417969 909.125 L 214.417969 594.957031 L 155.667969 594.957031 L 155.667969 541.625 L 329.917969 541.625 L 329.917969 594.957031 L 271.167969 594.957031 L 271.167969 909.125 Z M 473.125 909.125 L 422.707031 909.125 L 422.707031 879.207031 C 413.417969 890.25 403.75 898.667969 393.707031 904.417969 C 366.542969 920 329.25 919.625 329.25 864.625 L 329.25 638.042969 L 379.625 638.042969 L 379.625 845.875 C 379.625 856.792969 382.25 864.125 393.042969 864.125 C 402.875 864.125 416.542969 851.5 422.667969 843.832031 L 422.667969 638.042969 L 473.082031 638.042969 L 473.082031 909.125 Z M 667.167969 852.957031 C 667.167969 886.5 654.625 912.582031 621.082031 912.582031 C 602.625 912.582031 587.25 905.832031 573.207031 888.292969 L 573.207031 909.125 L 522.332031 909.125 L 522.332031 541.625 L 573.207031 541.625 L 573.207031 659.957031 C 584.582031 646.082031 600.042969 634.625 618.042969 634.625 C 654.957031 634.625 667.207031 665.832031 667.207031 702.582031 L 667.207031 852.957031 Z M 853.457031 779.957031 L 757.042969 779.957031 L 757.042969 831.125 C 757.042969 851.457031 758.792969 869.042969 779.042969 869.042969 C 800.332031 869.042969 801.582031 854.707031 801.582031 831.125 L 801.582031 812.292969 L 853.457031 812.292969 L 853.457031 832.667969 C 853.457031 884.875 831.042969 916.542969 777.917969 916.542969 C 729.792969 916.542969 705.167969 881.457031 705.167969 832.667969 L 705.167969 710.957031 C 705.167969 663.917969 736.25 631.207031 781.707031 631.207031 C 830.082031 631.207031 853.417969 661.957031 853.417969 710.957031 L 853.417969 779.957031 Z M 853.457031 779.957031 "/>
</svg>
