<svg xmlns="http://www.w3.org/2000/svg" viewBox="0 0 1000 1000">
	<path d="M 935.832031 250 C 903.75 264.582031 869.167969 274.167969 833.332031 278.75 C 870 256.667969 898.332031 221.667969 911.667969 179.582031 C 877.082031 200.417969 838.75 215 798.332031 223.332031 C 765.417969 187.5 719.167969 166.667969 666.667969 166.667969 C 568.75 166.667969 488.75 246.667969 488.75 345.417969 C 488.75 359.582031 490.417969 373.332031 493.332031 386.25 C 345 378.75 212.917969 307.5 125 199.582031 C 109.582031 225.832031 100.832031 256.667969 100.832031 289.167969 C 100.832031 351.25 132.082031 406.25 180.417969 437.5 C 150.832031 437.5 123.332031 429.167969 99.167969 416.667969 C 99.167969 416.667969 99.167969 416.667969 99.167969 417.917969 C 99.167969 504.582031 160.832031 577.082031 242.5 593.332031 C 227.5 597.5 211.667969 599.582031 195.417969 599.582031 C 184.167969 599.582031 172.917969 598.332031 162.082031 596.25 C 184.582031 666.667969 250 719.167969 328.75 720.417969 C 267.917969 768.75 190.832031 797.082031 106.667969 797.082031 C 92.5 797.082031 78.332031 796.25 64.167969 794.582031 C 143.332031 845.417969 237.5 875 338.332031 875 C 666.667969 875 847.082031 602.5 847.082031 366.25 C 847.082031 358.332031 847.082031 350.832031 846.667969 342.917969 C 881.667969 317.917969 911.667969 286.25 935.832031 250 Z M 935.832031 250 "/>
</svg>
