<svg xmlns="http://www.w3.org/2000/svg" viewBox="0 0 1000 1000" fill="currentColor"><path d="M56.2 578.4l-1.6-.3h669.2L513.4 788.9c-10.3 10.3-15.9 24.2-15.9 38.9 0 14.6 5.6 28.5 15.9 38.8l32.7 32.7c10.3 10.3 24 16 38.6 16s28.4-5.6 38.7-15.9L984 538.8c10.3-10.3 16-24.1 15.9-38.7 0-14.7-5.6-28.5-15.9-38.8L623.5 100.6c-10.3-10.3-24-15.9-38.7-15.9-14.6 0-28.3 5.7-38.6 15.9l-32.7 32.7c-10.3 10.3-15.9 24-15.9 38.6 0 14.6 5.6 27.6 15.9 37.9l212.7 212H55.5C25.3 421.9 0 447.9 0 478v46.3c0 30.2 26.1 54.1 56.2 54.1z"/></svg>