<svg xmlns="http://www.w3.org/2000/svg" viewBox="0 0 1000 1000" fill="currentColor"><path d="M935.832 250c-32.082 14.582-66.664 24.168-102.5 28.75 36.668-22.082 65-57.082 78.336-99.168-34.586 20.836-72.918 35.418-113.336 43.75-32.914-35.832-79.164-56.664-131.664-56.664-97.918 0-177.918 80-177.918 178.75 0 14.164 1.668 27.914 4.582 40.832C345 378.75 212.918 307.5 125 199.582c-15.418 26.25-24.168 57.086-24.168 89.586 0 62.082 31.25 117.082 79.586 148.332-29.586 0-57.086-8.332-81.25-20.832v1.25c0 86.664 61.664 159.164 143.332 175.414-15 4.168-30.832 6.25-47.082 6.25-11.25 0-22.5-1.25-33.336-3.332 22.5 70.418 87.918 122.918 166.668 124.168-60.832 48.332-137.918 76.664-222.082 76.664-14.168 0-28.336-.832-42.5-2.5C143.332 845.418 237.5 875 338.332 875c328.336 0 508.75-272.5 508.75-508.75 0-7.918 0-15.418-.414-23.332 35-25 65-56.668 89.164-92.918zm0 0"/></svg>