<svg width="1920" height="960" viewBox="0 0 1920 960" fill="none" xmlns="http://www.w3.org/2000/svg" preserveAspectRatio="none">
<path d="M2136.4 431.176C2379.24 331.058 2479.68 448.501 2499.54 519.738L2642.99 1308.57L1140.99 1117.36C1012.27 1109.85 120.559 1057.34 -309.205 1032.03C-613.315 885.467 -1104.32 870.993 -709.636 763.595C-216.284 629.347 -47.2744 420.437 717.728 558.142C1482.73 695.846 1832.85 556.323 2136.4 431.176Z" fill="#278ED0"/>
<path d="M2136.4 431.176C2379.24 331.058 2479.68 448.501 2499.54 519.738L2642.99 1308.57L1140.99 1117.36C1012.27 1109.85 120.559 1057.34 -309.205 1032.03C-613.315 885.467 -1104.32 870.993 -709.636 763.595C-216.284 629.347 -47.2744 420.437 717.728 558.142C1482.73 695.846 1832.85 556.323 2136.4 431.176Z" fill="url(#paint0_linear)"/>
<path d="M2136.4 431.176C2379.24 331.058 2479.68 448.501 2499.54 519.738L2642.99 1308.57L1140.99 1117.36C1012.27 1109.85 120.559 1057.34 -309.205 1032.03C-613.315 885.467 -1104.32 870.993 -709.636 763.595C-216.284 629.347 -47.2744 420.437 717.728 558.142C1482.73 695.846 1832.85 556.323 2136.4 431.176Z" stroke="#FAFAFA"/>
<defs>
<linearGradient id="paint0_linear" x1="-126.34" y1="570.452" x2="1664.16" y2="1108.45" gradientUnits="userSpaceOnUse">
<stop stop-color="#5EBFFD"/>
<stop offset="1" stop-color="#1983C6"/>
</linearGradient>
</defs>
</svg>
