<?xml version="1.0" encoding="utf-8"?>
<!-- Generator: Adobe Illustrator 21.0.2, SVG Export Plug-In . SVG Version: 6.00 Build 0)  -->
<svg version="1.1" id="Layer_1" xmlns="http://www.w3.org/2000/svg" xmlns:xlink="http://www.w3.org/1999/xlink" x="0px" y="0px"
	 viewBox="0 0 1920 649" style="enable-background:new 0 0 1920 649;" preserveAspectRation="none">
<style type="text/css">
	.st0{opacity:5.000000e-02;}
	.st1{fill:#0E0E0E;}
</style>
<g class="st0">
	<path class="st1" d="M2766.1,272.3l0.2-0.7c-107.2-10.3-201-40.9-308.9-83.5c-5.1-2-10.2-4.1-15.3-6.1
		c-41.7-16.8-83.8-35.9-124.5-54.5c-96-43.7-195.3-88.9-301.3-108.8c-6-1.1-12-2-18.4-2.7c-35.4-3.9-64.8,2.4-92.8,19.9
		c-25.3,15.8-47.4,39.6-70.7,64.8c-7.5,8.1-15.3,16.5-23.5,24.9C1697.7,242,1582,303.1,1446.7,318.1
		c-118.7,13.1-241.8-51.7-360.7-114.3c-20.7-10.9-42.1-22.2-62.9-32.7c-37.1-18.8-80.7-39.9-123-53.4
		c-39.2-12.5-82.9-15.4-133.8-8.8c-42.7,5.6-90.8,18-147.2,38.1c-53.6,19.1-109.1,42.9-162.7,66c-75,32.3-152.6,65.7-223.5,85
		c-79.3,21.6-142.5,23.3-193.2,5C-95,254.7-151.9,162.8-202.1,81.7C-233.5,30.9-263.1-17-308-50.5c-50.3-37.5-113.2-52.1-197.9-45.9
		l0,0.7c184.9-13.5,239.7,75.1,303.1,177.6c25.8,41.6,52.4,84.7,89.6,123.7c42.3,44.3,92.2,76.3,152.5,98
		c27.3,9.8,57.2,13.8,91.5,12.4c30.6-1.3,64-7,102.2-17.4c71-19.4,148.6-52.8,223.7-85.1c53.6-23.1,109.1-46.9,162.6-66
		c121.8-43.3,208.2-52.4,280.4-29.3c42.2,13.5,85.8,34.5,122.9,53.3c20.8,10.5,42.2,21.8,62.9,32.7
		c119.1,62.7,242.2,127.5,361.2,114.4c49.5-5.5,96-17,140.6-34.9c19.6-7.9,38.8-17,57.8-27.4c57-31.2,111.4-73.9,166.3-130.4
		c8.2-8.5,16-16.8,23.5-25c48.1-51.8,86.2-92.8,162.7-84.3c6.4,0.7,12.4,1.6,18.3,2.7c105.9,19.9,205.2,65.1,301.1,108.7
		c40.7,18.5,82.8,37.7,124.5,54.5c5.1,2,10.2,4.1,15.3,6.1C2564.9,231.4,2658.8,262,2766.1,272.3z"/>
	<path class="st1" d="M2773.3,257.2l0.2-0.7c-111.9-14.7-211.4-49.4-307.6-83c-5.1-1.8-10.3-3.6-15.4-5.4
		c-35-12.3-70.4-25.9-104.6-38.9c-104-39.7-211.6-80.8-324.9-95.7c-5.7-0.8-11.6-1.3-18.3-1.7c-35-2.2-64.6,5-93.3,22.6
		c-25.9,15.9-48.9,39-73.2,63.5c-7.1,7.2-14.5,14.6-22.1,22c-115.2,111.5-230.7,172.7-363.7,192.7
		c-124.7,18.7-254.8-39.2-380.7-95.1c-14.2-6.3-28.8-12.8-43.1-19.1c-40.3-17.7-83.1-36-123.8-48.5c-39.3-12.1-82.6-15.9-132.5-11.8
		c-42,3.5-89,12.7-143.6,28.3c-50.6,14.4-102.8,32.7-153.3,50.4c-153.4,53.7-298.3,104.5-412.4,60.4c-129.6-50-192-138-247.1-215.6
		c-35.6-50.2-69.3-97.6-117.2-131.8c-53.6-38.2-117.8-54.6-202-51.5l-0.1,0.7c183.8-6.8,246.2,81.2,318.5,182.9
		c28.3,39.9,57.6,81.2,96.2,118.9c43.7,42.8,93.2,74.5,151.2,96.9c27.5,10.6,57.5,16,91.6,16.6c30.5,0.5,63.6-2.9,101.3-10.5
		c70.1-14,146.3-40.7,220.1-66.6c50.5-17.7,102.7-36,153.3-50.4c116.5-33.2,204.1-38.4,275.6-16.4c40.6,12.5,83.4,30.8,123.7,48.5
		c14.3,6.2,29,12.8,43.1,19.1c125.9,56,256.2,113.9,381.2,95.1c46-6.9,89.9-18.7,132.4-35.8c80.6-32.5,156.3-84,231.8-157.1
		c7.7-7.5,15-14.9,22.1-22c50.2-50.6,89.9-90.5,165.7-85.7c6.6,0.4,12.6,1,18.3,1.7c113.2,14.9,220.8,56,324.7,95.7
		c34.2,13.1,69.6,26.6,104.6,39c5.1,1.8,10.3,3.6,15.4,5.4C2561.8,207.7,2661.4,242.4,2773.3,257.2z"/>
	<path class="st1" d="M2780.6,242l0.2-0.7c-88.2-14.8-167.8-39.6-252.1-65.8c-17.7-5.5-36.1-11.2-54.3-16.7l-15.6-4.8
		c-24-7.3-48.4-15-72-22.4c-116.2-36.6-236.3-74.5-361.3-83.6c-6.9-0.5-13.3-0.7-18.2-0.7c-34.5-0.5-64.2,7.5-93.6,25.1
		c-26.5,15.9-50.3,38.2-75.5,61.8c-6.8,6.4-13.8,12.9-21.1,19.6c-116.7,106.6-232.1,167.8-363.2,192.8
		c-134.5,25.6-275.9-26.6-412.6-77.1l-11.4-4.2c-4.6-1.7-9.2-3.4-13.8-5.2c-38.7-14.4-75.2-28-110.8-38.5
		C866,209.8,823,204.9,774,206.5c-41.3,1.3-87.1,7.4-140,18.5c-47.4,10-96.2,22.9-143.3,35.4c-150.9,40.1-293.4,77.9-408.6,30.2
		c-124.3-51.5-189-131.7-251.5-209.4c-40.1-49.8-78-96.8-128.9-131.6c-57.1-39-122.8-57.3-206.5-57.3l-0.1,0.7
		c183,0.1,253.3,87.5,334.8,188.6c30.7,38.2,62.5,77.6,102.2,114c45,41.3,93.9,72.5,149.6,95.6c27.8,11.5,57.8,18.4,91.8,21
		c30.3,2.3,63.2,1.2,100.5-3.4c69.3-8.6,144.3-28.5,216.8-47.8c47.1-12.5,95.9-25.5,143.3-35.4C747,202.1,833,200.9,905,222.1
		c35.6,10.5,72.1,24.1,110.8,38.5c4.6,1.7,9.2,3.4,13.8,5.2l11.4,4.2c136.8,50.5,278.4,102.7,413.1,77.1
		c68.7-13,132.3-35.9,194.5-69.8c57.3-31.2,112.6-71.5,169.2-123.2c7.2-6.6,14.3-13.2,21.1-19.6c50.2-47.1,93.6-87.7,168.4-86.6
		c4.9,0.1,11.3,0.2,18.2,0.7c124.9,9.2,245,47,361.1,83.6c23.6,7.4,47.9,15.1,72,22.4l15.6,4.8c18.2,5.5,36.5,11.2,54.3,16.8
		C2612.7,202.4,2692.3,227.2,2780.6,242z"/>
	<path class="st1" d="M2787.8,226.8l0.3-0.7c-65.9-13.5-129.5-32.1-191.1-50c-37-10.8-75.3-22-114-32c-5.2-1.4-10.5-2.8-15.7-4.1
		l-14.4-3.7c-68.5-17.7-139.3-35.9-209.4-49.6c-78.5-15.3-148.3-23.2-213.3-24.2c-6.5-0.1-12.7,0.1-18.1,0.3
		c-74.3,2.6-119.8,42.3-172.5,88.2c-6.2,5.4-12.7,11-19.2,16.7c-118.8,101.8-234.1,163.1-362.8,192.9
		c-137.8,31.9-285.1-6.5-424.2-48.5c-16.3-5-32.5-10.2-48.2-15.2c-26.8-8.5-52.2-16.6-77.3-23.7c-72.7-20.5-157.4-23.5-266.5-9.2
		c-43.9,5.7-88.8,13.6-132.3,21.3c-148.7,26.1-289.1,50.8-405.8-0.9C-15.4,231.9-84.5,155.6-151.3,81.8
		c-44.8-49.4-87-96.1-141.3-131.7c-60.9-40-128.2-60.1-211.6-63.4l-0.1,0.7c182.5,7.3,265,98.4,352.4,194.9
		c66.9,73.8,136,150.2,254.9,202.8c28.1,12.4,58.3,20.8,92.3,25.6c30.3,4.3,63,5.5,100,3.9c68.7-3,142.6-16,214-28.6
		c43.4-7.6,88.4-15.5,132.2-21.3c109-14.2,193.5-11.3,266.2,9.2c25.1,7.1,50.4,15.1,77.3,23.6c15.7,5,32,10.2,48.2,15.1
		c139.2,42.1,286.6,80.5,424.7,48.5c67.3-15.6,130.3-39.6,192.5-73.5c57.3-31.2,113.2-70.3,170.7-119.6c6.6-5.6,13-11.2,19.2-16.7
		c52.5-45.8,97.9-85.4,171.9-88c5.4-0.2,11.6-0.4,18.1-0.3c144.8,2.1,285.9,38.5,422.5,73.8l14.3,3.7c5.3,1.4,10.5,2.7,15.8,4.1
		c38.6,10.1,76.9,21.2,113.9,32C2658.3,194.7,2721.9,213.3,2787.8,226.8z"/>
	<path class="st1" d="M2795.1,211.7l0.3-0.7c-45.2-11.1-89.7-23.9-132.8-36.4c-55.2-15.9-112.3-32.4-171-45.2
		c-5.3-1.2-10.6-2.3-15.9-3.5C2336.8,96.5,2187.3,70.2,2035,77c-6.2,0.3-12.2,0.8-18,1.3c-73.6,6.3-121.2,45-176.4,89.7
		c-5.5,4.4-11.2,9-16.9,13.6c-121.1,97.1-236.2,158.4-362.3,193C1314,415.1,1157.2,387.5,1037,359c-29.3-7.1-58-15.1-85.8-22.8
		c-14-3.9-27.2-7.6-40.6-11.2C837,305.2,753.8,298.2,649,303c-39.8,1.8-80.3,5.1-119.5,8.2c-147.1,11.8-286.1,23-404.9-33.1
		C11.8,224.9-61.1,152.9-131.5,83.1C-181.2,33.9-228.2-12.6-286-49c-65-41-134.2-63.2-217.6-69.9l-0.2,0.7
		c182.5,14.7,274.4,105.6,371.7,201.9c70.5,69.8,143.4,141.9,256.3,195.2c53.4,25.2,116.6,38.9,193.1,42
		c68.4,2.7,141.5-3.2,212.2-8.8c39.2-3.2,79.7-6.4,119.5-8.2c104.8-4.8,187.8,2.2,261.4,22c13.3,3.6,26.6,7.3,40.5,11.1
		c27.8,7.7,56.5,15.7,85.8,22.8c83,19.7,151.2,30.7,214.6,34.6c77.7,4.8,146.4-1.4,210.2-18.9c65.9-18.1,128.2-43.3,190.5-77.2
		c57.4-31.2,113.7-69.1,172.1-116c5.7-4.6,11.4-9.2,16.9-13.6c55-44.7,102.5-83.2,175.8-89.5c5.8-0.5,11.8-1,18-1.3
		c152.2-6.8,301.7,19.5,440.5,48.9c5.3,1.1,10.6,2.3,15.9,3.5c58.7,12.7,115.7,29.2,170.9,45.2
		C2705.3,187.7,2749.8,200.6,2795.1,211.7z"/>
	<path class="st1" d="M2802.3,196.5l0.3-0.7c-26.4-7.5-52.7-15.5-78.2-23.2c-75.1-22.7-146.1-44.2-224.2-57.9
		c-5.4-1-10.8-1.9-16.1-2.8c-79.7-13.3-152.3-21.6-221.9-25.3c-78.1-4.2-150.9-2.5-222.5,5c-5.4,0.6-10.8,1.3-15.9,2l-2,0.3
		c-73,10-123,47.7-180.9,91.3c-4.6,3.4-9.2,6.9-13.9,10.4c-123.8,92.6-238.7,154-361.9,193.1c-124.4,39.5-263.3,45.1-424.6,17.2
		c-44.1-7.8-86.3-18.6-127.2-29.1c-74.5-19.2-158.5-30.6-256.9-34.9c-34.5-1.5-69.6-2.2-103.5-2.9c-146.7-3-285.2-5.9-407.1-67.1
		C39.6,218.6-36,151.1-109.1,85.8C-164.2,36.6-216.3-10-278.2-47.6c-69.7-42.3-141.1-66.8-224.9-77.1l-0.2,0.7
		c183.3,22.4,285.4,113.7,393.5,210.2c73.1,65.3,148.8,132.9,255.1,186.3c54.8,27.5,118.7,45.7,195.4,55.5
		c68.6,8.8,141.5,10.3,212.1,11.7c33.9,0.7,68.9,1.4,103.5,2.9c98.3,4.3,182.2,15.7,256.7,34.9c40.9,10.5,83.2,21.3,127.3,29.1
		c75.9,13.2,148.4,18.9,215.6,16.9c74.3-2.1,144.8-13.6,209.4-34.2c64.4-20.5,126-46.9,188.5-80.8c57.3-31.1,114.1-67.9,173.6-112.5
		c4.7-3.5,9.3-7,13.9-10.4c57.8-43.5,107.7-81.1,180.4-91.1l2-0.3c5.2-0.7,10.5-1.4,15.9-2c135.3-14.2,276.4-7.8,444.2,20.3
		c5.3,0.9,10.7,1.8,16.1,2.8c78.2,13.7,149.1,35.1,224.2,57.8C2749.6,181,2775.9,188.9,2802.3,196.5z"/>
	<path class="st1" d="M2809.6,181.3l0.3-0.7c-9.4-3.1-18.8-6.2-28.1-9.3c-90.6-30-176.2-58.3-273.1-71.3c-5.3-0.7-10.8-1.5-16.2-2.1
		c-151.5-18.7-302.3-15.9-448.2,8.3c-4.9,0.8-9.8,1.8-14.5,2.7l-3.4,0.7c-72.7,13.9-125.4,50.7-186.4,93.3c-3.3,2.3-6.6,4.6-9.9,6.9
		c-127.1,88.5-241.9,149.9-361.4,193.3c-136.1,49.3-279,66.2-424.8,50c-47.7-5.4-93.5-15.8-128.1-24.2c-79-19.3-163.8-35.4-252-47.7
		c-27-3.8-54.4-7.3-80.8-10.6c-148.6-19-288.9-36.9-416-104.7C68.6,213.3-8.2,150.9-82.4,90.7c-120.5-97.7-234.2-190.1-420.1-221
		l-0.2,0.7C-317.1-98.7-203.4-6.4-83,91.3c74.3,60.3,151.1,122.6,249.6,175.2c57.9,30.9,121.7,53.4,200.9,70.8
		c69.9,15.4,140.5,24.4,215.3,34c26.5,3.4,53.8,6.9,80.8,10.6c88.2,12.3,173,28.3,251.9,47.7c34.6,8.4,80.4,18.8,128.2,24.2
		c72.3,8,145.2,7.8,216.6-0.6c71.2-8.4,141.4-25,208.6-49.4c62.8-22.8,123.8-50.4,186.5-84.4c56.9-30.9,114.2-66.5,175.1-108.9
		c3.3-2.3,6.6-4.6,9.9-6.9c60.9-42.5,113.5-79.3,186-93.2l3.4-0.7c4.7-0.9,9.6-1.8,14.5-2.7c145.8-24.2,296.5-27,448-8.3
		c5.4,0.7,10.9,1.4,16.2,2.1c96.8,13,182.3,41.3,272.9,71.3C2790.8,175.1,2800.1,178.2,2809.6,181.3z"/>
	<path class="st1" d="M2816.8,166.1l0.4-0.7c-101.7-37.9-194.4-70.1-299.8-80.1c-5.4-0.5-10.9-1-16.4-1.5
		c-73.3-5.9-149.8-5.5-227.4,1.2c-72.7,6.3-148.2,18.3-224.6,35.7c-4.6,1-9.1,2.2-13.5,3.3c-1.4,0.3-2.8,0.7-4.2,1
		c-73,18-131.6,55.8-193.7,95.9l-4.2,2.7c-122.1,78.8-240.2,142.1-361,193.4c-145.4,61.7-288.4,89.6-425,82.8
		c-39.8-2.1-80.8-8.2-128.9-19.4c-51-11.9-102.1-24.6-151.4-36.9c-33.1-8.3-64.4-16-95.8-23.6c-13.7-3.3-27.4-6.6-41.1-9.9
		c-156.5-37.5-304.4-72.9-441.9-150.7C100,209.6,24.8,153.8-47.8,99.9C-183.2-0.6-311.1-95.5-501.9-135.9l-0.3,0.7
		C-311.5-94.8-183.7,0.1-48.4,100.5c72.7,53.9,147.8,109.7,236.2,159.7C325.5,338,473.4,373.4,630,410.9c13.7,3.3,27.4,6.6,41.1,9.9
		c31.4,7.6,62.7,15.4,95.8,23.6c49.4,12.3,100.4,25,151.4,36.9c48.2,11.2,89.2,17.3,129,19.4c70.5,3.5,143.8-2.4,217.9-17.5
		c68.4-14,138.3-36,207.5-65.4c120.8-51.3,239-114.6,361.1-193.5l4.2-2.7c62-40,120.5-77.9,193.4-95.8c1.4-0.3,2.8-0.7,4.2-1
		c4.4-1.1,9-2.2,13.5-3.3c157.9-35.9,309.9-48.3,451.7-36.9c5.5,0.4,11,0.9,16.4,1.5C2622.5,96.1,2715.2,128.2,2816.8,166.1z"/>
	<path class="st1" d="M2824,150.9l0.4-0.7c-104-43.6-194.6-73.8-298.5-79.6c-5.5-0.3-11-0.6-16.6-0.8
		c-136.2-5.3-285.2,16.1-455.7,65.5c-4.4,1.3-8.8,2.6-13,3.9c-1.5,0.5-3.1,0.9-4.6,1.4c-74.4,22.6-138,60.5-199.4,97.1
		c-96.3,57.4-224.4,131.4-360.5,193.5c-116.1,53-269.3,114-425.2,115.7c-41.2,0.4-83.6-4.4-129.7-14.5
		c-83.2-18.3-162.1-45.1-242.4-73.3c-153.6-53.9-316.4-114.3-469.3-205.8C136.7,209.7,69.5,163.6,4.5,119.1
		C-151.6,12-299.1-89.1-501.3-141.6l-0.3,0.7C-299.5-88.4-152.1,12.7,3.9,119.7c65,44.6,132.2,90.6,205.1,134.3
		c153,91.5,315.8,151.9,469.4,205.8c80.3,28.2,159.2,55,242.5,73.4c46.2,10.1,88.7,14.9,129.9,14.5c68.6-0.8,140.1-12.4,218.6-35.7
		c61.8-18.4,127.6-43.8,207-80.1c136.2-62.2,264.2-136.1,360.6-193.5c61.4-36.6,124.9-74.5,199.2-97c1.5-0.5,3.1-0.9,4.6-1.4
		c4.3-1.3,8.7-2.6,13-3.9c170.4-49.4,319.3-70.8,455.4-65.5c5.5,0.2,11.1,0.5,16.5,0.8C2629.6,77.2,2720.1,107.4,2824,150.9z"/>
	<path class="st1" d="M2831.3,135.8l0.4-0.7c-54.1-25.3-99.3-42.8-142-55.1c-52.6-15.2-103.4-23-155.2-23.9
		c-5.5-0.1-11.1-0.2-16.7-0.2c-132.9,0.2-278.9,30.1-459.4,94.1c-4.4,1.5-8.8,3.2-13.1,4.7l-4.4,1.6c-73.2,26.5-139.4,61.7-201,95.5
		c-25,13.7-50.3,27.6-74.8,41c-92.9,51.1-189.1,103.9-285.3,152.6c-121.5,61.4-272.7,137.9-425.4,148.5
		c-42.5,2.9-85.2-0.2-130.6-9.7c-85-17.7-164.4-51.9-237.6-86.2c-152.4-71.4-301.4-153.6-455.5-251c-40-25.3-79.7-51-118-75.9
		C-82.3,44.7-266.6-74.8-500.8-147.3l-0.3,0.7C-267.1-74.1-82.8,45.4,112.2,171.8c38.3,24.9,78,50.6,118,75.9
		c154.1,97.5,303.1,179.6,455.6,251.1c73.2,34.3,152.7,68.5,237.7,86.2c45.5,9.4,88.3,12.6,130.8,9.7c67.2-4.7,139-22.1,219.6-53.2
		c68.4-26.4,133.8-58.8,206.1-95.4c96.2-48.6,192.3-101.5,285.3-152.6c24.5-13.5,49.8-27.4,74.8-41c61.5-33.8,127.7-69,200.8-95.5
		l4.5-1.6c4.3-1.6,8.7-3.2,13.1-4.7c180.4-63.9,326.3-93.8,459.1-94.1c5.6,0,11.2,0,16.7,0.1C2651.1,58.8,2746.1,96,2831.3,135.8z"
		/>
	<path class="st1" d="M2838.5,120.6l0.5-0.7c-51.8-26.8-96.4-45.2-140.1-57.8c-51.9-15-102.9-21.8-155.8-20.8
		c-77.7,1.5-160.6,15.1-253.4,41.7c-94,26.9-184.4,63.6-244.1,88.8c-186.8,78.9-366.3,178.8-539.9,275.4l-22.2,12.3
		c-14.5,8.1-29.6,16.6-44.1,24.8c-115.9,65.4-247.3,139.5-381.5,156.6c-137.3,17.5-256.2-39.5-364.2-103.8
		C593.3,477.4,496.5,409.9,403,344.7c-49.2-34.3-100.1-69.8-150.9-103.8C123.6,155.2,5.6,83.7-108.9,22.6
		c-132.5-70.8-260.5-128.2-391.3-175.5l-0.4,0.7C-258.7-64.8-19.7,60.3,251.5,241.5c50.8,33.9,101.7,69.4,150.9,103.8
		C496,410.5,592.7,478,693.2,537.8c108.1,64.3,227.1,121.5,364.7,103.9c60.1-7.7,124.5-27.2,196.8-59.7c63.8-28.7,125.4-63.4,185-97
		c14.5-8.2,29.5-16.7,44.1-24.8l22.1-12.3c173.6-96.6,353.1-196.5,539.8-275.3c148.3-62.7,323.4-127.2,497.2-130.5
		C2665.2,39.8,2760.9,80.5,2838.5,120.6z"/>
</g>
</svg>
