<svg width="713" height="731" viewBox="0 0 713 731" fill="none" xmlns="http://www.w3.org/2000/svg">
<path fill-rule="evenodd" clip-rule="evenodd" d="M315.71 678.46C248.449 657.887 201.685 596.427 168.889 534.233C141.893 483.039 164.9 421.986 150.861 365.846C134.164 299.074 52.9165 240.822 79.6584 177.406C105.819 115.369 198.49 124.977 261.953 102.404C316.316 83.0684 366.771 47.5823 424.011 54.9278C482.524 62.437 529.595 102.262 572.899 142.309C618.549 184.526 675.972 228.294 678.623 290.392C681.247 351.878 609.91 388.128 585.806 444.754C558.032 510.003 581.702 597.68 528.064 644.091C472.496 692.173 386.004 699.96 315.71 678.46Z" fill="#28D2C6"/>
</svg>
