<?xml version="1.0" encoding="utf-8"?>
<!-- Generator: Adobe Illustrator 22.1.0, SVG Export Plug-In . SVG Version: 6.00 Build 0)  -->
<svg version="1.1" id="Layer_1" xmlns="http://www.w3.org/2000/svg" xmlns:xlink="http://www.w3.org/1999/xlink" x="0px" y="0px"
	 viewBox="0 0 1920 1031" style="enable-background:new 0 0 1920 1031;" xml:space="preserve">
<style type="text/css">
	.st0{fill:#FBFBFB;}
</style>
<path class="st0" d="M1921,443V215.7l-65.7,7.8c-60.9,11.7-192.3,31.3-318.8,70.4s-257.9,93.8-384.5,46.9
	c-126.6-46.9-257.9-203.3-384.5-277.5C640.9-14.9,509.6-14.9,383,32C256.4,78.9,125.2,176.6-1.4,215.7V443v62v125v77v147.5l9.2-1
	c53.7-9.3,169.3-24.8,280.8-55.9c111.5-31,227.2-74.5,338.7-37.2C738.8,797.6,854.5,921.8,966,980.7
	c111.5,62.1,227.2,62.1,338.7,24.8c111.5-37.2,227.1-114.8,338.7-145.9c109.7-30.5,223.4-16,278.2-6.7V707v-77V443H1921z"/>
</svg>
