<svg width="829" height="821" viewBox="0 0 829 821" fill="none" xmlns="http://www.w3.org/2000/svg">
<path fill-rule="evenodd" clip-rule="evenodd" d="M154.5 572.296C128.568 509.234 145.884 436.398 172.337 373.58C194.111 321.872 254.016 301.582 287.464 256.545C327.246 202.979 320.957 106.27 384.929 87.3261C447.511 68.7942 497.284 144.16 553.218 177.849C601.133 206.709 658.75 222.71 688.434 270.128C718.78 318.601 717.869 378.366 714.475 435.444C710.898 495.615 713.396 565.563 668.481 605.727C624.009 645.495 552.982 614.312 495.72 631.059C429.74 650.356 378.576 722 310.814 710.33C240.613 698.241 181.601 638.201 154.5 572.296Z" fill="#84E4DD"/>
</svg>
