<svg width="1920" height="793" viewBox="0 0 1920 793" fill="none" xmlns="http://www.w3.org/2000/svg" preserveAspectRatio="none">
<path fill-rule="evenodd" clip-rule="evenodd" d="M3 27.3792L82.875 36.9665C162.75 46.5539 322.5 65.7286 482.25 84.9033C642 104.078 801.75 123.253 961.5 104.078C1121.25 84.9033 1281 27.3792 1440.75 8.20443C1600.5 -10.9703 1760.25 8.20443 1840.12 17.7918L1920 27.3792V315H1840.12C1760.25 315 1600.5 315 1440.75 315C1281 315 1121.25 315 961.5 315C801.75 315 642 315 482.25 315C322.5 315 162.75 315 82.875 315H3V27.3792Z" fill="#FBFBFB"/>
<rect y="294" width="1920" height="203" fill="#FBFBFB"/>
<path fill-rule="evenodd" clip-rule="evenodd" d="M1933 625.538L1866.9 619.47C1805.52 610.367 1673.32 595.195 1545.83 625.538C1418.35 655.881 1286.15 731.739 1158.67 768.151C1031.18 804.562 898.982 804.562 771.5 743.876C644.018 686.224 511.815 564.852 384.333 528.441C256.852 492.029 124.648 534.509 -2.83335 564.852C-130.315 595.195 -262.518 610.367 -323.898 619.47L-390 625.538L-390 401L-323.898 401C-262.518 401 -130.315 401 -2.83333 401C124.648 401 256.852 401 384.333 401C511.815 401 644.018 401 771.5 401C898.982 401 1031.18 401 1158.67 401C1286.15 401 1418.35 401 1545.83 401C1673.32 401 1805.52 401 1866.9 401L1933 401L1933 625.538Z" fill="#FBFBFB"/>
</svg>
