<svg width="56" height="58" viewBox="0 0 56 58" fill="none" xmlns="http://www.w3.org/2000/svg">
<path fill-rule="evenodd" clip-rule="evenodd" d="M0.668489 39.1507C0.475587 38.7495 0.417987 38.3119 0.343765 37.882C-0.308775 34.1047 0.825825 30.7899 2.98833 27.7467C4.26364 25.9519 5.79526 24.3974 7.49039 23.0027C8.14603 22.463 8.91802 22.1151 9.69736 21.7958C9.93471 21.6987 9.99579 21.594 9.95211 21.3408C9.48938 18.6645 9.31271 15.9732 9.60728 13.2648C9.8775 10.7807 10.5355 8.41523 11.9101 6.30066C13.9551 3.15509 16.8962 1.32117 20.5435 0.63732C23.1664 0.145595 25.6769 0.667473 28.079 1.76805C30.6378 2.94054 32.8204 4.64147 34.7923 6.62268C35.5527 7.38655 36.0452 8.34139 36.5076 9.30513C36.7055 9.71799 36.8914 10.137 37.0635 10.5615C37.1377 10.7447 37.2533 10.7304 37.3998 10.7026C39.1324 10.3748 40.8793 10.2035 42.6433 10.275C45.2782 10.3814 47.7774 10.9829 49.9793 12.4924C52.6104 14.2966 54.4002 16.7394 55.2422 19.8285C55.4142 20.4609 55.5012 21.1258 55.5708 21.7938C55.8282 24.2679 55.2731 26.5843 54.3639 28.8434C53.6097 30.7172 52.5999 32.4568 51.3988 34.0754C50.6914 35.0283 49.7486 35.7392 48.7446 36.3693C48.0202 36.8231 47.3189 37.3145 46.567 37.7235C46.4124 37.8078 46.4607 37.9152 46.492 38.0339C46.7994 39.1913 47.0437 40.3615 47.2018 41.5498C47.4194 43.18 47.4708 44.8137 47.2718 46.4485C46.8724 49.7228 45.5148 52.5073 43.0121 54.6965C41.4093 56.0986 39.5986 57.1118 37.5111 57.5861C36.0553 57.9163 34.5816 57.9631 33.103 57.7717C30.0977 57.3836 27.418 56.1543 24.8337 54.6335C23.1587 53.6477 21.9901 52.2139 20.9328 50.6483C20.9127 50.6185 20.9065 50.5798 20.8941 50.5451C21.2386 50.7032 21.3499 51.0638 21.5486 51.3391C21.8007 51.6878 22.062 52.0326 22.3411 52.3546C22.8259 52.9144 23.3555 53.4355 23.94 53.899C24.3126 54.1947 24.7441 54.383 25.1411 54.6319C25.9281 55.126 26.7237 55.5976 27.5823 55.9652C28.3226 56.2822 29.0586 56.6019 29.824 56.8598C30.4716 57.0778 31.1079 57.3097 31.7902 57.4133C32.0434 57.452 32.3012 57.4868 32.5548 57.5347C32.9862 57.6159 33.4111 57.7361 33.8556 57.7346C34.5573 57.7327 35.2593 57.7346 35.9609 57.7334C36.0452 57.7334 36.1345 57.7435 36.2118 57.7191C36.5683 57.6047 36.9262 57.5081 37.3047 57.5077C37.3677 57.5077 37.4326 57.4918 37.4937 57.4729C37.8126 57.3751 38.1273 57.261 38.4497 57.176C39.0617 57.0148 39.6435 56.7844 40.1901 56.4666C40.6026 56.2266 41.0201 55.9969 41.4225 55.7341C41.9815 55.3684 42.5196 54.9756 43.0082 54.5303C43.6646 53.9315 44.2816 53.2909 44.795 52.5522C45.1707 52.0121 45.5275 51.4647 45.8314 50.8821C46.1437 50.2826 46.3745 49.6497 46.5968 49.0158C46.7464 48.5897 46.8759 48.149 46.9382 47.7037C46.9865 47.3604 47.0414 47.0129 47.092 46.6723C47.203 45.9344 47.1585 45.1859 47.2907 44.4538C47.3591 44.0753 47.1859 43.7262 47.1716 43.3563C47.1539 42.8978 47.1825 42.4447 47.0928 41.9777C47.0008 41.4996 46.9235 41.009 46.8643 40.5242C46.8152 40.1245 46.5763 39.7959 46.5984 39.39C46.4631 39.4209 46.4093 39.5698 46.2709 39.4967C46.1604 39.4383 46.1959 39.2957 46.0997 39.2045C46.0138 39.3525 46.095 39.4623 46.1314 39.5655C46.1901 39.7329 46.1159 39.7905 45.9775 39.7515C45.7742 39.6942 45.5704 39.7062 45.3659 39.7051C45.262 39.7047 45.1576 39.6722 45.1348 39.5806C45.0783 39.3525 44.9171 39.366 44.7432 39.3649C44.5479 39.3633 44.3489 39.3981 44.1571 39.3413C44.0458 39.3084 44.0013 39.3668 43.9642 39.4488C43.8912 39.6115 43.808 39.7433 43.5947 39.5176C43.6167 39.6378 43.6275 39.6989 43.6383 39.76L43.6151 39.7731L43.6256 39.7832L43.638 39.7596C43.6724 39.7835 43.6944 39.8214 43.6697 39.8539C43.4261 40.1693 43.4296 40.5714 43.3797 40.9251C43.2877 41.5788 43.1497 42.2248 42.9939 42.8588C42.8679 43.3717 42.7287 43.889 42.5822 44.4004C42.5254 44.5983 42.3905 44.753 42.3476 44.9513C42.2362 45.4647 42.0387 45.9579 41.8013 46.4129C41.533 46.9271 41.2787 47.4551 40.9103 47.9233C40.5968 48.3211 40.2991 48.7274 39.9353 49.0822C39.8476 49.1677 39.7587 49.2141 39.6373 49.1882C39.9968 48.8116 40.3811 48.461 40.6892 48.0358C41.4325 47.0094 41.9308 45.8655 42.3286 44.6733C42.8988 42.9647 43.2146 41.2 43.4675 39.4213C43.4988 39.1994 43.4192 39.2029 43.2402 39.2733C41.8029 39.84 40.3416 40.3317 38.798 40.5111C38.0624 40.5965 37.3198 40.6274 36.622 40.2907C36.3773 40.1724 36.1894 39.8299 36.2373 39.6007C36.2969 39.3166 36.5435 39.2996 36.7596 39.2617C37.2196 39.1809 37.6839 39.1233 38.1435 39.0429C39.7115 38.7692 41.172 38.1731 42.6147 37.5302C42.8977 37.4042 43.1907 37.2863 43.5038 37.0535C43.0937 37.1077 42.7875 37.2534 42.4736 37.3609C40.5241 38.0289 38.5525 38.6014 36.4882 38.7777C35.7019 38.8449 34.9145 38.8643 34.1773 38.5117C33.887 38.3729 33.5874 38.197 33.6376 37.8105C33.6863 37.4374 34.0122 37.3381 34.3188 37.2859C34.8797 37.1904 35.4491 37.1432 36.01 37.0481C38.51 36.6229 40.8855 35.7833 43.2355 34.8609C43.2753 34.8454 43.3094 34.8172 43.3465 34.7944C42.8258 34.9162 42.3174 35.0584 41.8091 35.2003C39.4146 35.8687 37.014 36.5108 34.5503 36.875C33.812 36.984 33.0666 37.0914 32.3182 36.9461C31.9456 36.8734 31.7759 36.6921 31.7411 36.3569C31.7144 36.0987 31.8888 35.8517 32.1957 35.7175C32.4276 35.6163 32.665 35.5351 32.9151 35.4898C34.3489 35.232 35.782 34.9711 37.1899 34.5887C38.9658 34.1063 40.7216 33.5655 42.3986 32.795C42.4067 32.7691 42.4195 32.7587 42.4411 32.7838C42.428 32.7881 42.4144 32.7919 42.4009 32.7954C42.0398 32.8847 41.6784 32.9698 41.3189 33.0637C39.122 33.6401 36.9239 34.2099 34.6779 34.5675C33.9214 34.6881 33.1617 34.8095 32.3901 34.7066C32.1249 34.6715 31.9386 34.5454 31.8613 34.2772C31.7805 33.9969 31.8381 33.7622 32.0619 33.5686C32.2142 33.4371 32.3936 33.359 32.5799 33.2972C33.2193 33.0857 33.8723 32.9218 34.5333 32.795C35.7982 32.5523 37.0762 32.3764 38.3179 32.0118C39.4598 31.677 40.5434 31.2325 41.4519 30.4435C42.2358 29.7627 42.9591 29.0205 43.6051 28.2056C43.8506 27.8959 44.0543 27.5608 44.1737 27.1819C44.381 26.5255 44.1594 26.0674 43.5525 25.7462C43.1702 25.544 42.8296 25.6287 42.4794 25.7794C41.4658 26.2159 40.4959 26.7412 39.5128 27.2399C38.3616 27.8237 37.2111 28.4078 35.9787 28.8087C35.5048 28.9625 35.025 29.0843 34.5206 29.0383C34.1119 29.0008 33.7041 28.6498 33.6662 28.2702C33.6264 27.867 33.9538 27.7309 34.2384 27.5987C35.6776 26.9291 37.0066 26.0845 38.2731 25.1319C39.4196 24.2695 40.4162 23.2393 41.4925 22.2983C42.4655 21.4479 43.5718 20.9349 44.8878 20.875C45.8144 20.8328 46.7402 20.8425 47.6665 20.8452C47.9421 20.846 47.9908 20.7509 47.973 20.5081C47.9143 19.7025 47.6444 18.9749 47.1798 18.3212C46.4739 17.3277 45.5016 16.6551 44.4374 16.105C42.5834 15.1459 40.584 14.636 38.5549 14.2208C38.3438 14.1775 38.2951 14.2293 38.3515 14.4447C38.6395 15.539 38.8657 16.6458 39.0037 17.77C39.1305 18.8029 39.2004 19.837 39.0381 20.873C38.9604 21.3675 38.8228 21.841 38.5208 22.2504C38.379 22.4425 38.0237 22.5624 37.8173 22.4928C37.5509 22.4035 37.566 22.1739 37.5629 21.9581C37.5594 21.7428 37.5583 21.5275 37.5648 21.3122C37.6047 20.0052 37.4647 18.7152 37.1744 17.4422C37.0573 16.9276 36.9046 16.4197 36.77 15.9109C36.6305 15.3825 36.4558 14.8676 36.3127 14.3422C36.4403 15.159 36.6162 15.9654 36.7368 16.7827C36.973 18.3866 37.1276 19.9955 37.065 21.6187C37.0422 22.2075 36.9888 22.7951 36.8323 23.3664C36.7055 23.8307 36.5331 24.2772 36.1635 24.6081C35.7878 24.9444 35.4062 24.8316 35.2589 24.358C35.182 24.1102 35.1978 23.8574 35.2083 23.6057C35.2616 22.3235 35.2365 21.0439 35.0973 19.7666C34.9365 18.2934 34.6841 16.8356 34.3605 15.3906C34.347 15.3307 34.3686 15.2054 34.2399 15.1679C34.3493 16.2101 34.4614 17.2353 34.5642 18.2613C34.7687 20.3109 34.8994 22.3644 34.8097 24.4253C34.7885 24.9104 34.7328 25.396 34.5747 25.8606C34.4444 26.2441 34.2457 26.4003 33.9132 26.3956C33.6106 26.3914 33.4204 26.2147 33.3106 25.8301C33.2074 25.4667 33.19 25.0933 33.1915 24.7183C33.1985 22.9296 33.0825 21.1483 32.8552 19.3743C32.7056 18.2056 32.5088 17.0448 32.2386 15.8974C32.2166 15.8054 32.2305 15.6825 32.089 15.6218C32.1045 15.7285 32.1199 15.8085 32.1273 15.8893C32.2057 16.7834 32.2803 17.6776 32.3611 18.5717C32.5239 20.3712 32.6213 22.1735 32.5629 23.9811C32.5463 24.4945 32.5049 25.009 32.3445 25.503C32.2417 25.8193 32.0731 25.9391 31.7426 25.9515C31.3742 25.965 31.1032 25.7025 31.0155 25.2359C30.9169 24.7113 30.8755 24.1798 30.8338 23.6483C30.7371 22.4066 30.8404 21.1583 30.7178 19.9178C30.6188 18.9119 30.5048 17.9091 30.1368 16.9559C29.6404 15.6701 28.7822 14.619 27.9256 13.5691C27.6113 13.1833 27.2475 12.8438 26.7898 12.6266C26.3932 12.4383 25.9958 12.3877 25.6312 12.6908C25.2524 13.0054 25.0143 13.3731 25.1337 13.9108C25.3819 15.0268 25.7727 16.0988 26.1083 17.1874C26.4883 18.4198 26.8969 19.6445 27.0968 20.9241C27.1822 21.4699 27.2572 22.0192 27.0736 22.562C26.9618 22.8917 26.549 23.2037 26.2223 23.1925C25.8419 23.1793 25.7604 22.8678 25.6498 22.5902C25.6359 22.5554 25.6266 22.5191 25.6169 22.4831C25.0815 20.5294 24.2272 18.7167 23.1958 16.981C22.6465 16.0559 21.9769 15.2093 21.445 14.2734C20.8756 13.2722 20.5845 12.2114 20.7094 11.0486C20.8149 10.0628 20.9943 9.08903 21.1524 8.11176C21.1848 7.91075 21.1303 7.83111 20.9421 7.82106C20.5965 7.80289 20.2509 7.78743 19.9057 7.83536C18.7324 7.99773 17.7915 8.59846 16.9642 9.40409C15.7751 10.5619 14.9467 11.9702 14.2392 13.4492C13.105 15.8201 12.3241 18.3166 11.6836 20.8603C11.6364 21.047 11.6716 21.1034 11.8606 21.0474C13.6397 20.5205 15.4508 20.1555 17.2971 19.9692C18.8086 19.8165 20.3201 19.7431 21.8211 20.057C22.391 20.176 22.9465 20.3508 23.3802 20.7741C23.582 20.9712 23.6164 21.2182 23.5294 21.4718C23.4413 21.7285 23.2082 21.6895 23.0048 21.6786C22.3229 21.6423 21.6484 21.5248 20.9641 21.5093C19.8477 21.4838 18.7394 21.582 17.6392 21.754C16.8544 21.8766 16.0712 22.0173 15.3012 22.2183C15.4059 22.2264 15.5095 22.2272 15.6116 22.2156C17.9036 21.9562 20.1983 21.8379 22.4965 22.1286C23.2383 22.2226 23.9767 22.3459 24.659 22.6795C25.0058 22.8492 25.3363 23.0433 25.54 23.3885C25.7522 23.7484 25.6285 24.0503 25.2304 24.1678C24.9907 24.2382 24.7468 24.227 24.5071 24.1879C23.6848 24.0545 22.8564 23.9718 22.0257 23.9413C19.7862 23.8589 17.5626 24.0669 15.5408 24.3174C16.2958 24.3174 17.2468 24.3182 18.1978 24.3174C20.5555 24.3147 22.9132 24.3058 25.2539 24.6537C25.7631 24.7295 26.2672 24.8343 26.7299 25.0755C26.9901 25.2112 27.1068 25.425 27.0685 25.7222C27.0326 26.001 26.8571 26.1451 26.6066 26.2248C26.4531 26.2735 26.2958 26.2862 26.1361 26.2924C25.4793 26.3168 24.8295 26.2221 24.1766 26.1815C22.4002 26.0705 20.6235 26.074 18.8472 26.1788C18.3431 26.2085 17.8383 26.243 17.3376 26.3067C16.8436 26.3694 16.3422 26.3953 15.8524 26.5395C16.0422 26.5395 16.2239 26.5406 16.4056 26.5391C18.979 26.5217 21.5525 26.5166 24.1166 26.7857C24.7212 26.8491 25.3247 26.9334 25.9018 27.1348C26.133 27.2156 26.353 27.3188 26.4063 27.6052C26.4949 28.0834 26.2718 28.3912 25.736 28.4712C24.9822 28.5837 24.2214 28.5562 23.4664 28.5025C22.086 28.4039 20.7086 28.2454 19.3212 28.3189C18.6392 28.3552 17.9612 28.424 17.3005 28.613C16.1601 28.9389 15.1748 29.5687 14.1901 30.198C13.6447 30.5463 13.124 30.9275 12.754 31.4729C12.4954 31.8545 12.3949 32.2701 12.6531 32.6837C12.9187 33.1093 13.277 33.4054 13.8333 33.3123C14.0726 33.2721 14.3166 33.2581 14.5551 33.2125C16.0685 32.9222 17.5599 32.5279 19.0776 32.2561C20.0553 32.081 21.0345 31.9337 22.0318 32.0157C22.6844 32.069 23.0489 32.3686 23.1614 32.9149C23.2148 33.1754 23.1181 33.3556 22.8916 33.4665C22.776 33.5229 22.6484 33.5643 22.5212 33.5875C20.3819 33.9818 18.359 34.7097 16.4157 35.6797C15.5629 36.1057 14.7576 36.6206 13.8855 37.0087C12.9918 37.4065 12.0744 37.6381 11.0828 37.5271C10.2417 37.4328 9.4399 37.1776 8.62036 36.994C8.22064 36.9051 7.83947 36.7304 7.42042 36.7315C7.22714 36.924 7.17302 37.1738 7.15987 37.4482C6.98011 37.3342 6.96001 37.2291 7.06284 37.0671C7.12779 36.9642 7.18693 36.8181 7.10459 36.694C7.00138 36.5379 6.91594 36.7381 6.81466 36.7277C6.76866 36.7226 6.72111 36.7288 6.67472 36.7327C6.57498 36.7412 6.50656 36.8015 6.52125 36.8962C6.55797 37.1343 6.43079 37.1343 6.24291 37.156C5.72413 37.2147 5.49914 37.0574 5.50997 36.5595C5.51499 36.3357 5.44502 36.2738 5.2239 36.2761C4.07268 36.2858 2.92145 36.2808 1.77062 36.2808C1.2642 36.2808 1.26382 36.2808 1.23598 36.7752C1.23444 36.8034 1.23753 36.832 1.23173 36.8595C1.20622 36.9836 1.13509 37.064 1.00288 37.0609C0.864869 37.0574 0.842834 36.9561 0.843221 36.8436C0.843607 36.7126 0.841288 36.5815 0.843608 36.4505C0.84554 36.3364 0.813455 36.2599 0.690524 36.2178C0.543625 36.1671 0.390927 36.1919 0.260651 36.2201C0.185269 36.2367 0.197639 36.4377 0.240549 36.5305C0.453939 36.9948 0.407163 37.4919 0.450073 37.9775C0.458964 38.0787 0.449686 38.1777 0.482159 38.2805C0.570298 38.5624 0.700961 38.8395 0.668489 39.1507ZM0.278434 34.8284C0.221993 35.0221 0.189907 35.1319 0.315158 35.2811C0.335647 35.1241 0.35227 35.0182 0.278434 34.8284ZM1.93066 29.6096C1.94612 29.6162 1.96468 29.6317 1.9755 29.627C1.98671 29.6224 1.99831 29.5957 1.99406 29.5845C1.9898 29.5737 1.96236 29.5613 1.95153 29.566C1.94071 29.5706 1.93723 29.5942 1.93066 29.6096ZM0.761267 32.4997C0.745804 32.4931 0.730727 32.4865 0.715264 32.4796C0.708693 32.495 0.693616 32.5136 0.697868 32.5248C0.702121 32.5356 0.726088 32.5391 0.741165 32.5461C0.748123 32.5306 0.754695 32.5151 0.761267 32.4997Z" fill="white"/>
<path fill-rule="evenodd" clip-rule="evenodd" d="M0.668384 39.1506C0.700857 38.8394 0.570194 38.5626 0.480895 38.2781C0.448423 38.1749 0.4577 38.0763 0.448809 37.975C0.405899 37.4895 0.452675 36.9924 0.239285 36.5281C0.196762 36.4357 0.184004 36.2343 0.259387 36.2177C0.389276 36.1894 0.541974 36.1647 0.689259 36.2153C0.81219 36.2571 0.844276 36.334 0.842343 36.4481C0.840024 36.5791 0.842344 36.7102 0.841957 36.8412C0.84157 36.9537 0.863218 37.055 1.00161 37.0585C1.13382 37.0616 1.20495 36.9812 1.23047 36.8571C1.23626 36.83 1.23317 36.801 1.23472 36.7728C1.26294 36.2784 1.26294 36.2784 1.76935 36.2784C2.92058 36.2784 4.0718 36.2838 5.22264 36.2737C5.44376 36.2714 5.51373 36.3333 5.5087 36.5571C5.49788 37.055 5.72286 37.2123 6.24165 37.1536C6.42914 37.1319 6.55671 37.1319 6.51998 36.8938C6.50529 36.7991 6.5741 36.7392 6.67345 36.7303C6.71984 36.7264 6.76739 36.7206 6.8134 36.7252C6.91429 36.7357 6.99972 36.5354 7.10333 36.6916C7.18528 36.8157 7.12652 36.9618 7.06158 37.0647C6.95875 37.2266 6.97885 37.3318 7.15861 37.4458C7.17214 37.1713 7.22587 36.922 7.41916 36.7291C7.38089 37.0159 7.32174 37.3012 7.30783 37.5896C7.25525 38.6802 7.61863 39.6501 8.22478 40.5342C9.02384 41.6993 10.0873 42.5915 11.2401 43.3821C13.2781 44.7799 15.5114 45.7982 17.7983 46.7051C18.1451 46.8427 18.4857 47.0159 18.8603 47.0785C18.8877 46.9811 18.8363 46.9289 18.8096 46.8725C18.2379 45.6625 17.7346 44.4258 17.3704 43.137C17.1234 42.2626 16.9316 41.3761 16.9649 40.4584C16.9784 40.0819 17.0453 39.7142 17.2235 39.3764C17.3372 39.1599 17.6638 38.9883 17.8807 39.035C18.1277 39.0888 18.166 39.2956 18.2085 39.5032C18.3917 40.3993 18.5313 41.3054 18.8185 42.1791C19.3454 43.7833 20.0884 45.2879 20.9172 46.7542C20.8944 46.6649 20.8631 46.5783 20.831 46.4921C20.5848 45.8237 20.2802 45.18 20.0486 44.5047C19.7123 43.5228 19.3852 42.539 19.1297 41.5327C18.839 40.3892 18.6028 39.2357 18.6449 38.0454C18.6623 37.5529 18.7578 37.0766 19.0431 36.6626C19.3377 36.2351 19.7784 36.2722 20.0088 36.7365C20.0969 36.9135 20.1468 37.1025 20.1727 37.2989C20.4398 39.3312 21.017 41.281 21.746 43.1892C22.0688 44.035 22.4133 44.8723 22.7477 45.7131C22.8192 45.8886 22.8907 46.0645 22.9889 46.3061C23.0647 45.9938 22.9015 45.8179 22.8393 45.618C22.7222 45.3308 22.6193 45.0393 22.5687 44.732C22.6325 44.444 22.5103 44.1858 22.4168 43.9322C22.2637 43.5143 22.0808 43.0763 22.0499 42.66C22.0116 42.1474 21.6966 41.7565 21.6432 41.2652C21.6038 40.9037 21.4553 40.5516 21.3367 40.2021C21.2249 39.8739 21.3293 39.5086 21.1302 39.1904C21.0711 39.0957 21.0552 38.8858 21.1585 38.7946C21.2431 38.7196 21.3811 38.8387 21.4967 38.8669C21.6127 38.8951 21.6293 38.9894 21.6216 39.0876C21.6088 39.2453 21.7348 39.3381 21.7901 39.4641C21.821 39.5341 21.8833 39.5295 21.9223 39.4746C22.0101 39.3505 22.1539 39.2206 21.9219 39.0926C21.8419 39.0489 21.8079 38.9712 21.7955 38.885C21.782 38.7903 21.8326 38.7238 21.9057 38.6732C21.9637 38.633 22.0735 38.6179 22.0812 38.6655C22.1121 38.8549 22.3074 38.8955 22.3827 39.0354C22.5223 39.296 22.7473 39.5534 22.7666 39.8244C22.7886 40.136 22.9178 40.3772 23.0241 40.6424C23.0272 40.6505 23.0241 40.661 23.0264 40.6699C23.1284 41.1013 23.2838 41.5149 23.4466 41.9262C23.7245 42.629 23.994 43.3357 24.2677 44.0404C24.3098 44.1487 24.3724 44.2372 24.5023 44.2461C24.6365 44.3968 24.6473 44.6203 24.8116 44.7714C24.6102 43.8027 24.2283 42.905 23.9843 41.9641C23.5204 40.1743 23.0094 38.3968 22.7152 36.5687C22.6321 36.0538 22.5637 35.533 22.6286 35.0061C22.6638 34.7212 22.8176 34.5523 23.0844 34.4649C23.3357 34.3826 23.5398 34.4502 23.7226 34.6288C23.8598 34.763 23.9549 34.9238 24.0187 35.0997C24.2777 35.8114 24.4857 36.5378 24.65 37.2777C24.8545 38.1981 25.0176 39.1278 25.2712 40.0378C25.7274 41.6765 26.3529 43.2201 27.6417 44.4081C28.3897 45.0973 29.1014 45.8303 30.0045 46.3266C30.8437 46.7874 31.3339 46.7124 31.8983 46.0487C32.0866 45.8929 32.2327 45.6613 32.2095 45.4522C32.1488 44.9149 31.8554 44.4413 31.6296 43.9623C31.4232 43.5247 31.1746 43.0952 30.9245 42.6766C30.5503 42.0507 30.2229 41.3993 29.8649 40.7657C29.5147 40.1453 29.282 39.4587 28.9623 38.8186C28.8652 38.6237 28.917 38.4123 28.808 38.2333C28.5703 37.8436 28.5158 37.413 28.5308 36.9672C28.5393 36.7106 28.8007 36.3398 29.0481 36.2919C29.1795 36.2668 29.3604 36.2018 29.4478 36.3835C29.5232 36.5408 29.6419 36.6642 29.6898 36.8528C29.7408 37.0531 29.8062 37.2893 29.9824 37.4427C30.0949 37.5409 30.115 37.6596 30.1034 37.7945C30.0628 37.8015 30.0149 37.7999 30.0184 37.8618C30.0188 37.8683 30.0292 37.8788 30.0358 37.8792C30.098 37.883 30.0961 37.8351 30.1034 37.7941C30.2395 37.8046 30.3184 37.8834 30.3779 38.0013C30.5194 38.2797 30.6075 38.6253 30.8283 38.8128C31.1808 39.1108 31.39 39.5105 31.6459 39.8588C32.0727 40.4399 32.5045 41.0213 33.0155 41.5157C33.4972 41.9819 33.9085 42.5204 34.437 42.936C34.851 43.2619 35.0899 43.74 35.4857 44.0837C35.7861 44.3447 35.9577 44.7169 36.1634 45.0513C36.4066 45.4464 36.5542 45.8809 36.6528 46.3479C36.7568 46.8392 36.7479 47.3364 36.8221 47.8269C36.9106 48.4126 36.8399 49.0218 36.8453 49.6206C36.8496 50.1093 36.9559 50.2264 37.4325 50.2009C37.8137 50.1808 38.1817 50.0637 38.5316 49.9133C38.6877 49.846 38.8938 49.8325 38.973 49.6346C39.1949 49.4857 39.4164 49.3369 39.6383 49.1888C39.7597 49.2144 39.849 49.168 39.9364 49.0829C40.3001 48.728 40.5982 48.3217 40.9113 47.924C41.2797 47.4558 41.5337 46.9278 41.8024 46.4136C42.0397 45.9582 42.2373 45.4653 42.3486 44.952C42.3915 44.7536 42.5264 44.599 42.5833 44.4011C42.7302 43.8897 42.8689 43.3724 42.995 42.8594C43.1508 42.2254 43.2888 41.5795 43.3808 40.9258C43.4306 40.5724 43.4272 40.1704 43.6707 39.8546C43.6954 39.8221 43.6734 39.7838 43.639 39.7602C43.6282 39.6992 43.617 39.6381 43.5953 39.5179C43.8087 39.7436 43.8918 39.6118 43.9649 39.4491C44.002 39.3671 44.0465 39.3087 44.1578 39.3416C44.3495 39.398 44.5486 39.3636 44.7438 39.3652C44.9178 39.3663 45.0786 39.3528 45.1354 39.5809C45.1582 39.6725 45.2626 39.705 45.3666 39.7054C45.5711 39.7065 45.7748 39.6945 45.9782 39.7517C46.1166 39.7908 46.1912 39.7328 46.132 39.5658C46.0957 39.4626 46.0145 39.3528 46.1003 39.2047C46.1966 39.296 46.161 39.4382 46.2716 39.497C46.4096 39.5697 46.4637 39.4212 46.599 39.3903C46.577 39.7962 46.8163 40.1244 46.865 40.5245C46.9241 41.0093 47.0014 41.4995 47.0934 41.978C47.1831 42.445 47.1545 42.8985 47.1723 43.3566C47.1866 43.7265 47.3594 44.0752 47.2914 44.4541C47.1592 45.1866 47.2036 45.9346 47.0927 46.6726C47.0416 47.0132 46.9871 47.3607 46.9388 47.704C46.8766 48.1489 46.7471 48.59 46.5975 49.016C46.3752 49.6504 46.144 50.2828 45.8321 50.8824C45.5282 51.4654 45.1714 52.0124 44.7956 52.5524C44.2823 53.2912 43.6653 53.9317 43.0089 54.5305C42.5203 54.9759 41.9825 55.3686 41.4231 55.7343C41.0211 55.9972 40.6036 56.2264 40.1907 56.4669C39.6441 56.7847 39.0623 57.0151 38.4504 57.1763C38.128 57.2613 37.8137 57.3754 37.4944 57.4732C37.4333 57.4921 37.3684 57.5079 37.3053 57.5079C36.9269 57.5083 36.5689 57.605 36.2125 57.7194C36.1352 57.7438 36.0455 57.7337 35.9616 57.7337C35.26 57.7349 34.5579 57.7329 33.8563 57.7349C33.4118 57.7364 32.9869 57.6162 32.5555 57.535C32.3023 57.4871 32.0444 57.4519 31.7908 57.4136C31.1085 57.31 30.4722 57.0785 29.8247 56.86C29.0597 56.6022 28.3233 56.2825 27.583 55.9655C26.7244 55.5979 25.9288 55.1263 25.1417 54.6322C24.7447 54.3829 24.3133 54.1946 23.9406 53.8993C23.3558 53.4358 22.8265 52.9147 22.3418 52.3549C22.0627 52.0329 21.8013 51.688 21.5493 51.3394C21.3506 51.0641 21.2393 50.7034 20.8948 50.5453C20.5836 50.17 20.3594 49.7389 20.1097 49.3245C20.0242 49.1834 19.94 49.1107 19.7567 49.1239C18.1405 49.2418 16.5226 49.2658 14.9064 49.1405C11.9417 48.9101 9.08685 48.2808 6.48287 46.7646C4.08494 45.3679 2.34883 43.3879 1.25637 40.8403C1.02055 40.2902 0.778945 39.7432 0.668384 39.1506ZM6.47089 37.2881C6.3294 37.539 6.28572 37.7149 6.41368 37.8792C6.52037 38.016 6.68467 37.9727 6.82847 37.9391C6.9514 37.9101 6.98117 37.8135 6.95604 37.6998C6.93285 37.5954 6.87022 37.5718 6.76894 37.607C6.56096 37.6782 6.51844 37.5255 6.47089 37.2881ZM1.1172 37.7918C1.11449 37.7218 1.09516 37.6557 1.01592 37.6495C0.932416 37.643 0.907288 37.7098 0.902263 37.779C0.897624 37.8394 0.918112 37.8915 0.988469 37.8993C1.06578 37.9074 1.11449 37.8765 1.1172 37.7918ZM44.1017 40.303C44.1709 40.2767 44.2053 40.2272 44.1895 40.1542C44.1767 40.0962 44.1381 40.0494 44.0751 40.0622C44.0028 40.0772 43.9715 40.1348 43.9865 40.2079C43.9989 40.2667 44.036 40.3042 44.1017 40.303ZM29.2483 37.0461C29.2487 37.0063 29.2367 36.9742 29.1923 36.9661C29.1521 36.9583 29.1192 36.9719 29.1076 37.0136C29.0929 37.0685 29.1192 37.1041 29.1733 37.1083C29.2116 37.1114 29.2429 37.0902 29.2483 37.0461ZM0.861285 37.2506C0.845049 37.263 0.811031 37.2757 0.809484 37.2916C0.803299 37.3507 0.834612 37.399 0.882547 37.4304C0.890665 37.4358 0.934348 37.4087 0.93976 37.3905C0.958703 37.3275 0.922751 37.2858 0.861285 37.2506ZM28.8625 36.9502C28.8598 36.9135 28.8594 36.8706 28.8111 36.8702C28.7616 36.8698 28.7597 36.9135 28.7597 36.9498C28.7601 36.9858 28.7616 37.0295 28.8107 37.0295C28.8606 37.0299 28.8594 36.9858 28.8625 36.9502ZM7.14585 37.6944C7.12111 37.7172 7.09482 37.7303 7.09057 37.7485C7.08632 37.7694 7.09482 37.8069 7.1099 37.8154C7.14817 37.837 7.17639 37.8138 7.17678 37.7729C7.17716 37.7508 7.16015 37.7288 7.14585 37.6944ZM7.50421 39.6335C7.48874 39.6269 7.4698 39.6118 7.45859 39.6161C7.44738 39.6207 7.44429 39.6447 7.43772 39.6601C7.45318 39.6667 7.47212 39.6822 7.48294 39.6775C7.49416 39.6729 7.49763 39.6493 7.50421 39.6335Z" fill="white"/>
<path fill-rule="evenodd" clip-rule="evenodd" d="M0.278445 34.8286C0.352281 35.018 0.335658 35.1243 0.31517 35.2813C0.189919 35.1321 0.221619 35.0223 0.278445 34.8286Z" fill="white"/>
<path fill-rule="evenodd" clip-rule="evenodd" d="M1.93066 29.6092C1.93762 29.5942 1.94072 29.5702 1.95193 29.5659C1.96275 29.5613 1.9902 29.5737 1.99445 29.5845C1.9987 29.5957 1.98672 29.6228 1.97589 29.627C1.96468 29.6317 1.94613 29.6162 1.93066 29.6092Z" fill="white"/>
<path fill-rule="evenodd" clip-rule="evenodd" d="M0.761266 32.5C0.754694 32.5151 0.748122 32.5305 0.74155 32.546C0.726087 32.539 0.702119 32.5359 0.698254 32.5247C0.694001 32.5135 0.709078 32.495 0.71565 32.4795C0.730726 32.4865 0.746189 32.493 0.761266 32.5Z" fill="white"/>
<path fill-rule="evenodd" clip-rule="evenodd" d="M42.401 32.7948C42.4141 32.791 42.4277 32.7871 42.4412 32.7832C42.4192 32.7585 42.4068 32.7686 42.3987 32.7945L42.401 32.7948Z" fill="white"/>
<path fill-rule="evenodd" clip-rule="evenodd" d="M43.6383 39.7603L43.6259 39.7838L43.6155 39.7734L43.6383 39.7603Z" fill="white"/>
<path fill-rule="evenodd" clip-rule="evenodd" d="M22.5684 44.733C22.3353 44.2417 22.212 43.7132 22.0551 43.1972C21.5545 41.5527 21.0793 39.9008 20.7194 38.2188C20.5258 37.3146 20.3522 36.4054 20.3421 35.4745C20.3398 35.2673 20.3754 35.0659 20.4256 34.8653C20.4883 34.6148 20.6634 34.4938 20.8965 34.4412C21.1273 34.389 21.3179 34.4625 21.469 34.6457C21.6836 34.9066 21.7802 35.2186 21.8552 35.5383C22.1111 36.6292 22.3237 37.7306 22.621 38.8126C22.9801 40.1196 23.4054 41.4046 23.8693 42.6764C24.0626 43.206 24.2899 43.7237 24.5017 44.2467C24.3714 44.2378 24.3088 44.1493 24.2671 44.041C23.9934 43.3363 23.7239 42.63 23.446 41.9269C23.2832 41.5155 23.1278 41.1019 23.0258 40.6705C23.0234 40.6616 23.0265 40.6508 23.0234 40.643C22.9171 40.3775 22.788 40.1362 22.766 39.825C22.7466 39.5541 22.5217 39.2966 22.3821 39.036C22.3071 38.8961 22.1115 38.8555 22.0806 38.6661C22.0728 38.6185 21.9631 38.6336 21.9051 38.6738C21.832 38.7245 21.7814 38.791 21.7949 38.8857C21.8073 38.9719 21.8417 39.0496 21.9213 39.0933C22.1533 39.2212 22.0094 39.3511 21.9217 39.4752C21.8827 39.5301 21.8204 39.5343 21.7895 39.4648C21.7342 39.3391 21.6082 39.2463 21.6209 39.0882C21.6291 38.99 21.6121 38.8957 21.4961 38.8675C21.3805 38.8397 21.2425 38.7202 21.1578 38.7952C21.0546 38.8864 21.0705 39.0964 21.1296 39.1911C21.3291 39.5092 21.2247 39.8749 21.336 40.2027C21.4551 40.5522 21.6035 40.9044 21.6426 41.2658C21.6959 41.7572 22.0114 42.148 22.0493 42.6606C22.0802 43.0769 22.2627 43.5149 22.4161 43.9328C22.5101 44.1868 22.6322 44.445 22.5684 44.733Z" fill="white"/>
<path fill-rule="evenodd" clip-rule="evenodd" d="M31.898 46.0491C32.1675 45.5493 32.0407 45.087 31.7979 44.6142C31.1577 43.3675 30.453 42.1567 29.8005 40.9173C29.2264 39.8264 28.6346 38.7386 28.3968 37.5104C28.316 37.0933 28.294 36.672 28.6593 36.3403C29.0981 35.9417 29.4239 35.9788 29.7189 36.4891C29.9153 36.8285 30.0858 37.1826 30.2802 37.5232C31.433 39.5419 32.9 41.3097 34.57 42.919C35.2976 43.6203 35.9857 44.3571 36.4217 45.2899C36.7403 45.9714 36.8609 46.6967 36.8999 47.4373C36.9428 48.2495 36.9738 49.0621 36.995 49.8751C37.0012 50.0962 37.0577 50.1553 37.2904 50.1325C37.8861 50.0749 38.43 49.8639 38.972 49.6354C38.8927 49.8333 38.6871 49.8469 38.5305 49.9141C38.181 50.0645 37.813 50.1816 37.4315 50.2017C36.9552 50.2273 36.8485 50.1101 36.8443 49.6215C36.8389 49.0227 36.91 48.4134 36.8211 47.8278C36.7468 47.3368 36.7554 46.8401 36.6518 46.3487C36.5532 45.8818 36.4055 45.4472 36.1623 45.0522C35.9567 44.7178 35.785 44.3455 35.4847 44.0846C35.0892 43.7409 34.8499 43.2627 34.4359 42.9368C33.9074 42.5212 33.4961 41.9827 33.0145 41.5165C32.5034 41.0221 32.072 40.4407 31.6448 39.8597C31.3889 39.5114 31.1798 39.1116 30.8272 38.8136C30.6065 38.6265 30.5183 38.2805 30.3769 38.0022C30.3173 37.8843 30.2385 37.8054 30.1024 37.795V37.7954C30.1136 37.6601 30.0939 37.5418 29.9814 37.4436C29.8051 37.2901 29.7398 37.0535 29.6887 36.8537C29.6408 36.665 29.5221 36.5417 29.4468 36.3844C29.359 36.2023 29.1785 36.2672 29.047 36.2927C28.7996 36.3407 28.5387 36.7114 28.5298 36.9681C28.5147 37.4138 28.5692 37.8448 28.807 38.2341C28.916 38.4131 28.8642 38.6246 28.9612 38.8194C29.2809 39.4596 29.5136 40.1461 29.8639 40.7666C30.2218 41.4006 30.5493 42.0516 30.9235 42.6774C31.1736 43.0961 31.4222 43.5256 31.6286 43.9632C31.8543 44.4421 32.1478 44.9161 32.2084 45.453C32.2324 45.6618 32.0867 45.893 31.898 46.0491Z" fill="white"/>
<path fill-rule="evenodd" clip-rule="evenodd" d="M6.47091 37.2881C6.51846 37.5254 6.56098 37.6785 6.76896 37.607C6.87024 37.5718 6.93287 37.5958 6.95606 37.6998C6.98119 37.8134 6.95181 37.9101 6.82849 37.9391C6.68468 37.9727 6.52039 38.016 6.41369 37.8792C6.28574 37.7149 6.32981 37.539 6.47091 37.2881Z" fill="white"/>
<path fill-rule="evenodd" clip-rule="evenodd" d="M22.7473 45.7141C22.8034 45.7064 22.8146 45.6565 22.8389 45.6187C22.9016 45.8193 23.0643 45.9952 22.9885 46.3071C22.89 46.0659 22.8184 45.89 22.7473 45.7141Z" fill="white"/>
<path fill-rule="evenodd" clip-rule="evenodd" d="M1.11717 37.7924C1.11447 37.8767 1.06576 37.9076 0.988442 37.8991C0.918085 37.8914 0.897596 37.8396 0.902235 37.7789C0.907261 37.7097 0.932389 37.6428 1.01589 37.6494C1.09552 37.6563 1.11447 37.7224 1.11717 37.7924Z" fill="white"/>
<path fill-rule="evenodd" clip-rule="evenodd" d="M44.1018 40.303C44.0361 40.3042 43.999 40.2663 43.9866 40.2079C43.9715 40.1352 44.0028 40.0772 44.0751 40.0622C44.1381 40.0494 44.1768 40.0962 44.1896 40.1542C44.205 40.2272 44.1706 40.2767 44.1018 40.303Z" fill="white"/>
<path fill-rule="evenodd" clip-rule="evenodd" d="M29.2487 37.0464C29.2429 37.0905 29.2116 37.1118 29.1737 37.1087C29.1196 37.1044 29.0933 37.0685 29.108 37.014C29.1192 36.9722 29.1521 36.9587 29.1927 36.9664C29.2364 36.9745 29.2487 37.0066 29.2487 37.0464Z" fill="white"/>
<path fill-rule="evenodd" clip-rule="evenodd" d="M0.861281 37.251C0.922747 37.2862 0.958699 37.3279 0.940143 37.3913C0.934731 37.4095 0.891048 37.4361 0.88293 37.4311C0.834608 37.3998 0.803682 37.3515 0.809867 37.2923C0.811027 37.2761 0.845045 37.2633 0.861281 37.251Z" fill="white"/>
<path fill-rule="evenodd" clip-rule="evenodd" d="M28.863 36.9506C28.8595 36.9866 28.8607 37.0303 28.8108 37.0299C28.7617 37.0299 28.7602 36.9862 28.7598 36.9502C28.7598 36.9139 28.7617 36.8702 28.8112 36.8706C28.8595 36.8706 28.8599 36.9139 28.863 36.9506Z" fill="white"/>
<path fill-rule="evenodd" clip-rule="evenodd" d="M7.14583 37.6943C7.16013 37.7287 7.17753 37.7508 7.17714 37.7724C7.17676 37.8134 7.14815 37.8366 7.11027 37.8149C7.09519 37.8068 7.08669 37.7689 7.09094 37.7481C7.0948 37.7303 7.12109 37.7171 7.14583 37.6943Z" fill="white"/>
<path fill-rule="evenodd" clip-rule="evenodd" d="M30.1031 37.7944C30.0957 37.835 30.0977 37.883 30.0354 37.8795C30.0289 37.8791 30.0184 37.8687 30.018 37.8621C30.0142 37.8002 30.0621 37.8018 30.1031 37.7944Z" fill="white"/>
<path fill-rule="evenodd" clip-rule="evenodd" d="M7.50424 39.6343C7.49766 39.6497 7.49418 39.6737 7.48297 39.6779C7.47215 39.6826 7.45282 39.6671 7.43774 39.6605C7.44432 39.6451 7.44741 39.6207 7.45862 39.6165C7.46983 39.6122 7.48877 39.6273 7.50424 39.6343Z" fill="white"/>
</svg>
